<svg xmlns="http://www.w3.org/2000/svg" width="633" height="726" viewBox="0 0 633 726" version="1.1"><path d="M 0.027 367 C 0.008 572.912, 0.041 576.555, 1.956 579.696 C 3.028 581.453, 4.939 583.569, 6.202 584.397 C 8.613 585.976, 63.666 611.876, 176.500 664.516 C 180.350 666.312, 198.125 674.633, 216 683.008 C 233.875 691.383, 251.662 699.710, 255.527 701.513 C 259.392 703.315, 272.851 709.601, 285.437 715.481 L 308.320 726.173 318.410 725.781 C 328.327 725.395, 328.706 725.289, 340.500 719.591 C 351.070 714.485, 365.213 707.820, 389.372 696.562 C 393.292 694.735, 403.700 689.862, 412.500 685.733 C 421.300 681.604, 431.875 676.654, 436 674.733 C 440.125 672.812, 450.700 667.862, 459.500 663.733 C 468.300 659.604, 478.875 654.666, 483 652.759 C 547.188 623.082, 625.247 586.148, 627.856 584.219 C 634.467 579.329, 634.024 595.738, 633.752 365.782 L 633.505 156.500 633.250 360.959 L 632.995 565.419 630.248 562.198 C 628.005 559.570, 599.878 546.110, 477.353 489.029 C 381.142 444.208, 325.463 418.789, 322.353 418.267 L 317.500 417.454 317.237 368.477 C 317.047 333.271, 317.297 318.715, 318.125 316.710 C 318.758 315.175, 321.104 312.355, 323.339 310.442 L 327.402 306.964 324.110 308.111 C 322.261 308.756, 318.117 309.039, 314.659 308.757 C 308.420 308.248, 308.811 308.411, 269.500 289.990 C 265.100 287.928, 204.125 259.370, 134 226.529 C 63.875 193.687, 5.752 166.150, 4.839 165.334 C 3.925 164.518, 2.473 162.422, 1.612 160.675 C 0.185 157.783, 0.044 176.162, 0.027 367 M 0.491 367.500 C 0.491 483, 0.607 530.102, 0.750 472.170 C 0.893 414.239, 0.893 319.739, 0.750 262.170 C 0.607 204.602, 0.491 252, 0.491 367.500" stroke="none" fill="#f3902c" fill-rule="evenodd"/><path d="M 308.500 0.683 C 306.812 1.145, 291.269 8.281, 231 36.260 C 226.875 38.175, 210.716 45.688, 195.091 52.955 C 179.466 60.223, 163.941 67.425, 160.591 68.961 C 157.241 70.497, 147.300 75.108, 138.500 79.209 C 129.700 83.309, 96.490 98.743, 64.699 113.506 C 24.448 132.197, 6.006 141.259, 3.961 143.351 C 0.712 146.675, -0.543 151.269, 0.330 156.649 C 1.666 164.878, -3.496 162.171, 129.628 224.455 C 197.758 256.330, 258.900 284.968, 265.500 288.094 C 311.130 309.707, 307.824 308.375, 316 308.438 C 320.125 308.470, 324.934 308.158, 326.687 307.745 C 329.059 307.186, 564.399 197.608, 621.174 170.628 C 630.139 166.368, 632.843 162.922, 633.694 154.674 C 634.273 149.065, 633.678 147.720, 628.341 142.579 C 627.154 141.436, 594.304 125.673, 555.341 107.552 C 516.379 89.431, 480 72.506, 474.500 69.941 C 469 67.376, 433.225 50.708, 395 32.901 L 325.500 0.525 318 0.331 C 313.875 0.224, 309.600 0.382, 308.500 0.683 M 0.286 153.500 C 0.294 156.250, 0.488 157.256, 0.718 155.736 C 0.947 154.216, 0.941 151.966, 0.704 150.736 C 0.467 149.506, 0.279 150.750, 0.286 153.500 M 317.252 321.500 C 317.263 323.700, 317.468 324.482, 317.707 323.238 C 317.946 321.994, 317.937 320.194, 317.687 319.238 C 317.437 318.282, 317.241 319.300, 317.252 321.500" stroke="none" fill="#24ac94" fill-rule="evenodd"/></svg>