<svg xmlns="http://www.w3.org/2000/svg" 
width="512" height="512" 
viewBox="0 0 512 512" version="1.1">
<path d="M 240.500 8.377 L 226.500 16.597 226.500 34.427 L 226.500 52.256 237.225 58.378 L 247.950 64.500 248.225 89 L 248.500 113.500 256 113.500 L 263.500 113.500 263.775 89 L 264.050 64.500 274.775 58.378 L 285.500 52.256 285.500 34.427 L 285.500 16.597 271.500 8.377 C 263.800 3.856, 256.825 0.157, 256 0.157 C 255.175 0.157, 248.200 3.856, 240.500 8.377 M 247.713 22.181 L 240.926 26.280 241.213 34.727 L 241.500 43.173 249 47.213 L 256.500 51.254 263.787 47.019 L 271.075 42.784 270.787 34.193 L 270.500 25.602 264 21.820 C 260.425 19.741, 256.825 18.049, 256 18.060 C 255.175 18.072, 251.446 19.926, 247.713 22.181 M 91.877 70.759 L 75.254 75.254 70.759 91.877 L 66.263 108.500 78.620 120.983 L 90.977 133.467 103.238 130.256 L 115.500 127.046 132.750 144.262 L 150 161.478 155.739 155.739 L 161.478 150 144.262 132.750 L 127.046 115.500 130.256 103.238 L 133.467 90.977 120.983 78.620 L 108.500 66.263 91.877 70.759 M 390.891 78.609 L 378.537 90.993 381.746 103.246 L 384.954 115.500 367.738 132.750 L 350.522 150 356.261 155.739 L 362 161.478 379.319 144.181 L 396.638 126.883 407.569 129.935 C 413.581 131.614, 419.182 132.990, 420.015 132.993 C 420.848 132.997, 426.975 127.487, 433.630 120.750 L 445.731 108.500 441.227 91.837 L 436.724 75.174 430.612 73.607 C 427.250 72.745, 419.718 70.732, 413.872 69.133 L 403.245 66.226 390.891 78.609 M 94.799 85.831 C 91.664 86.749, 88.683 87.950, 88.177 88.500 C 87.670 89.050, 86.463 92.810, 85.494 96.856 L 83.732 104.212 89.768 110.248 L 95.803 116.283 103.526 114.184 C 107.774 113.029, 111.437 111.896, 111.667 111.667 C 111.896 111.437, 113.027 107.781, 114.179 103.542 L 116.274 95.835 110.418 89.918 C 104.011 83.443, 103.456 83.298, 94.799 85.831 M 401.582 89.918 L 395.726 95.835 397.821 103.542 C 398.973 107.781, 400.104 111.437, 400.333 111.667 C 400.563 111.896, 404.226 113.029, 408.474 114.184 L 416.197 116.283 422.307 110.173 L 428.416 104.064 426.536 96.511 C 425.501 92.357, 424.170 88.558, 423.577 88.069 C 422.423 87.115, 411.128 84, 408.824 84 C 408.062 84, 404.802 86.663, 401.582 89.918 M 226 145.342 L 226 162.684 218.888 165.474 L 211.775 168.265 199.644 156.134 L 187.513 144.003 165.760 165.740 L 144.006 187.477 156.133 199.633 L 168.260 211.789 165.472 218.895 L 162.684 226 145.342 226 L 128 226 128 256 L 128 286 145.342 286 L 162.684 286 165.474 293.112 L 168.265 300.225 156.134 312.356 L 144.003 324.487 165.740 346.240 L 187.477 367.994 199.633 355.867 L 211.789 343.740 218.895 346.528 L 226 349.316 226 366.658 L 226 384 256 384 L 286 384 286 366.658 L 286 349.316 293.112 346.526 L 300.225 343.735 312.356 355.866 L 324.487 367.997 346.240 346.260 L 367.994 324.523 355.867 312.367 L 343.740 300.211 346.528 293.105 L 349.316 286 366.658 286 L 384 286 384 256 L 384 226 366.658 226 L 349.316 226 346.528 218.895 L 343.740 211.789 355.867 199.633 L 367.994 187.477 346.240 165.740 L 324.487 144.003 312.356 156.134 L 300.225 168.265 293.112 165.474 L 286 162.684 286 145.342 L 286 128 256 128 L 226 128 226 145.342 M 240.995 159.250 L 240.990 174.500 233.245 176.824 C 228.985 178.102, 221.900 181.057, 217.500 183.390 L 209.500 187.633 198.245 176.578 L 186.989 165.522 176.256 176.256 L 165.522 186.989 176.578 198.245 L 187.633 209.500 183.390 217.500 C 181.057 221.900, 178.102 228.985, 176.824 233.245 L 174.500 240.990 159.250 240.995 L 144 241 144 256 L 144 271 159.262 271 L 174.525 271 176.445 277.750 C 177.501 281.462, 180.440 288.650, 182.977 293.722 L 187.588 302.945 176.794 313.706 L 165.999 324.467 176.733 335.234 L 187.467 346.001 198.484 335.184 L 209.500 324.367 217.500 328.619 C 221.900 330.958, 228.988 333.884, 233.250 335.122 L 241 337.373 241 352.687 L 241 368 256 368 L 271 368 271 352.687 L 271 337.373 278.750 335.122 C 283.012 333.884, 290.100 330.958, 294.500 328.619 L 302.500 324.367 313.755 335.422 L 325.011 346.478 335.744 335.744 L 346.478 325.011 335.422 313.755 L 324.367 302.500 328.619 294.500 C 330.958 290.100, 333.884 283.012, 335.122 278.750 L 337.373 271 352.687 271 L 368 271 368 256 L 368 241 352.687 241 L 337.373 241 335.122 233.250 C 333.884 228.988, 330.958 221.900, 328.619 217.500 L 324.367 209.500 335.422 198.245 L 346.478 186.989 335.744 176.256 L 325.011 165.522 313.755 176.578 L 302.500 187.633 294.500 183.390 C 290.100 181.057, 283.015 178.102, 278.755 176.824 L 271.010 174.500 271.005 159.250 L 271 144 256 144 L 241 144 240.995 159.250 M 246.500 212.026 C 223.916 216.578, 207.811 240.897, 212.017 264.094 C 213.702 273.388, 217.526 280.658, 224.301 287.448 C 229.961 293.120, 230.302 293.306, 231.637 291.448 C 232.408 290.377, 233.675 288.742, 234.453 287.816 C 235.231 286.890, 236.641 284.952, 237.586 283.509 C 239.291 280.907, 239.272 280.852, 235.206 276.693 C 229.363 270.717, 227.048 265.005, 227.023 256.500 C 226.986 244.411, 233.699 233.767, 244.435 228.890 C 250.202 226.271, 261.999 226.365, 268 229.079 C 273.836 231.717, 278.525 236.268, 281.830 242.500 C 284.130 246.837, 284.482 248.693, 284.487 256.500 C 284.493 266.779, 283.301 269.889, 276.746 276.686 L 272.709 280.872 277.308 287.062 L 281.908 293.252 287.771 287.376 C 315.646 259.440, 294.549 210.173, 255.114 211.110 C 252.576 211.170, 248.700 211.582, 246.500 212.026 M 15.660 228.227 C 11.317 235.199, 0 255.250, 0 255.973 C 0 256.440, 3.743 263.274, 8.318 271.161 L 16.637 285.500 34.447 285.500 L 52.256 285.500 58.378 274.775 L 64.500 264.050 89 263.775 L 113.500 263.500 113.500 256 L 113.500 248.500 89 248.225 L 64.500 247.950 58.379 237.225 L 52.259 226.500 34.667 226.227 C 17.315 225.958, 17.057 225.985, 15.660 228.227 M 456.195 232.727 C 454.040 236.452, 451.201 241.403, 449.888 243.729 L 447.500 247.957 423 248.229 L 398.500 248.500 398.500 256 L 398.500 263.500 423 263.775 L 447.500 264.050 453.622 274.775 L 459.744 285.500 477.573 285.500 L 495.403 285.500 503.623 271.500 C 508.144 263.800, 511.843 256.825, 511.843 256 C 511.843 255.175, 508.144 248.200, 503.624 240.500 L 495.405 226.500 477.760 226.227 L 460.115 225.954 456.195 232.727 M 22.044 247.924 C 19.820 251.733, 18 255.367, 18 256 C 18 256.633, 19.820 260.267, 22.044 264.076 L 26.088 271 34.415 271 L 42.741 271 46.871 263.868 C 49.142 259.945, 51 256.311, 51 255.792 C 51 255.274, 49.149 251.733, 46.886 247.925 L 42.772 241 34.430 241 L 26.088 241 22.044 247.924 M 465.151 248.096 C 462.868 252.039, 461 255.596, 461 256 C 461 256.404, 462.858 259.945, 465.129 263.868 L 469.259 271 477.585 271 L 485.912 271 489.956 264.076 C 492.180 260.267, 493.991 256.555, 493.980 255.826 C 493.970 255.096, 492.259 251.575, 490.180 248 L 486.398 241.500 477.850 241.213 L 469.301 240.927 465.151 248.096 M 249.637 285.778 C 248.745 287.222, 247.008 299.342, 247.608 299.941 C 248.347 300.680, 263.668 300.665, 264.409 299.924 C 264.725 299.608, 264.421 296.233, 263.733 292.424 L 262.482 285.500 256.328 285.205 C 252.943 285.042, 249.933 285.300, 249.637 285.778 M 132.496 367.979 L 115.500 384.959 103.238 381.746 L 90.977 378.533 78.620 391.017 L 66.263 403.500 70.759 420.123 L 75.254 436.746 91.877 441.241 L 108.500 445.737 120.983 433.380 L 133.467 421.023 130.256 408.762 L 127.046 396.500 144.250 379.262 L 161.455 362.024 156.012 356.512 C 153.018 353.480, 150.326 351, 150.031 351 C 149.735 351, 141.844 358.641, 132.496 367.979 M 355.988 356.512 L 350.545 362.024 367.750 379.262 L 384.954 396.500 381.744 408.762 L 378.533 421.023 391.017 433.404 L 403.500 445.785 420.125 441.257 L 436.750 436.730 441.240 420.115 L 445.731 403.500 433.630 391.250 C 426.975 384.512, 420.848 379.003, 420.015 379.007 C 419.182 379.010, 413.581 380.386, 407.569 382.065 L 396.638 385.117 379.559 368.059 C 370.165 358.676, 362.243 351, 361.955 351 C 361.667 351, 358.982 353.480, 355.988 356.512 M 89.620 401.857 L 83.741 407.820 85.493 415.160 C 86.457 419.197, 87.753 423.007, 88.373 423.627 C 88.993 424.247, 92.803 425.543, 96.840 426.507 L 104.180 428.259 110.143 422.380 C 116.733 415.882, 116.696 416.075, 113.440 405.108 C 112.004 400.273, 111.727 399.996, 106.892 398.560 C 95.925 395.304, 96.118 395.267, 89.620 401.857 M 407.129 398.068 C 403.625 399.080, 400.568 400.098, 400.337 400.330 C 400.105 400.562, 398.971 404.226, 397.816 408.474 L 395.717 416.197 401.821 422.301 L 407.925 428.405 415.212 426.555 C 419.221 425.537, 422.985 424.330, 423.577 423.873 C 424.170 423.416, 425.499 419.650, 426.531 415.506 L 428.408 407.970 422.485 401.985 C 419.228 398.693, 415.874 396.051, 415.031 396.113 C 414.189 396.176, 410.633 397.055, 407.129 398.068 M 248.706 398.627 C 248.318 399.015, 247.995 410.171, 247.988 423.417 L 247.977 447.500 237.238 453.622 L 226.500 459.744 226.500 477.573 L 226.500 495.403 240.500 503.623 C 248.200 508.144, 255.175 511.843, 256 511.843 C 256.825 511.843, 263.800 508.144, 271.500 503.623 L 285.500 495.403 285.500 477.573 L 285.500 459.744 274.775 453.622 L 264.050 447.500 263.775 423 L 263.500 398.500 256.456 398.210 C 252.582 398.051, 249.095 398.239, 248.706 398.627 M 248.250 465.100 L 241 469.153 241 477.462 L 241 485.772 247.925 489.886 C 251.733 492.149, 255.367 494, 256 494 C 256.633 494, 260.267 492.180, 264.076 489.956 L 271 485.912 271 477.570 L 271 469.228 264.075 465.114 C 260.267 462.851, 256.779 461.011, 256.325 461.024 C 255.871 461.037, 252.238 462.872, 248.250 465.100" stroke="none" fill="#050506" fill-rule="evenodd"/><path d="M 247.713 22.181 L 240.926 26.280 241.213 34.727 L 241.500 43.173 249 47.213 L 256.500 51.254 263.787 47.019 L 271.075 42.784 270.787 34.193 L 270.500 25.602 264 21.820 C 260.425 19.741, 256.825 18.049, 256 18.060 C 255.175 18.072, 251.446 19.926, 247.713 22.181 M 94.799 85.831 C 91.664 86.749, 88.683 87.950, 88.177 88.500 C 87.670 89.050, 86.463 92.810, 85.494 96.856 L 83.732 104.212 89.768 110.248 L 95.803 116.283 103.526 114.184 C 107.774 113.029, 111.437 111.896, 111.667 111.667 C 111.896 111.437, 113.027 107.781, 114.179 103.542 L 116.274 95.835 110.418 89.918 C 104.011 83.443, 103.456 83.298, 94.799 85.831 M 401.582 89.918 L 395.726 95.835 397.821 103.542 C 398.973 107.781, 400.104 111.437, 400.333 111.667 C 400.563 111.896, 404.226 113.029, 408.474 114.184 L 416.197 116.283 422.307 110.173 L 428.416 104.064 426.536 96.511 C 425.501 92.357, 424.170 88.558, 423.577 88.069 C 422.423 87.115, 411.128 84, 408.824 84 C 408.062 84, 404.802 86.663, 401.582 89.918 M 240.995 159.250 L 240.990 174.500 233.245 176.824 C 228.985 178.102, 221.900 181.057, 217.500 183.390 L 209.500 187.633 198.245 176.578 L 186.989 165.522 176.256 176.256 L 165.522 186.989 176.578 198.245 L 187.633 209.500 183.390 217.500 C 181.057 221.900, 178.102 228.985, 176.824 233.245 L 174.500 240.990 159.250 240.995 L 144 241 144 256 L 144 271 159.262 271 L 174.525 271 176.445 277.750 C 177.501 281.462, 180.440 288.650, 182.977 293.722 L 187.588 302.945 176.794 313.706 L 165.999 324.467 176.733 335.234 L 187.467 346.001 198.484 335.184 L 209.500 324.367 217.500 328.619 C 221.900 330.958, 228.988 333.884, 233.250 335.122 L 241 337.373 241 352.687 L 241 368 256 368 L 271 368 271 352.687 L 271 337.373 278.750 335.122 C 283.012 333.884, 290.100 330.958, 294.500 328.619 L 302.500 324.367 313.755 335.422 L 325.011 346.478 335.744 335.744 L 346.478 325.011 335.422 313.755 L 324.367 302.500 328.619 294.500 C 330.958 290.100, 333.884 283.012, 335.122 278.750 L 337.373 271 352.687 271 L 368 271 368 256 L 368 241 352.687 241 L 337.373 241 335.122 233.250 C 333.884 228.988, 330.958 221.900, 328.619 217.500 L 324.367 209.500 335.422 198.245 L 346.478 186.989 335.744 176.256 L 325.011 165.522 313.755 176.578 L 302.500 187.633 294.500 183.390 C 290.100 181.057, 283.015 178.102, 278.755 176.824 L 271.010 174.500 271.005 159.250 L 271 144 256 144 L 241 144 240.995 159.250 M 246.500 212.026 C 223.916 216.578, 207.811 240.897, 212.017 264.094 C 213.702 273.388, 217.526 280.658, 224.301 287.448 C 230.682 293.843, 230.641 293.840, 233.951 288.085 C 234.634 286.896, 235.464 286.995, 239.132 288.704 C 241.535 289.823, 244.563 291.069, 245.861 291.472 C 247.964 292.125, 248.156 292.626, 247.609 296.041 L 246.996 299.877 251.498 300.552 C 253.974 300.923, 258.026 300.923, 260.502 300.552 L 265.004 299.877 264.393 296.055 L 263.782 292.233 268.879 290.540 C 271.683 289.609, 274.233 288.431, 274.547 287.924 C 275.611 286.203, 277.492 287.023, 279.685 290.162 L 281.870 293.290 287.752 287.395 C 315.645 259.440, 294.566 210.173, 255.114 211.110 C 252.576 211.170, 248.700 211.582, 246.500 212.026 M 22.044 247.924 C 19.820 251.733, 18 255.367, 18 256 C 18 256.633, 19.820 260.267, 22.044 264.076 L 26.088 271 34.415 271 L 42.741 271 46.871 263.868 C 49.142 259.945, 51 256.311, 51 255.792 C 51 255.274, 49.149 251.733, 46.886 247.925 L 42.772 241 34.430 241 L 26.088 241 22.044 247.924 M 465.151 248.096 C 462.868 252.039, 461 255.596, 461 256 C 461 256.404, 462.858 259.945, 465.129 263.868 L 469.259 271 477.585 271 L 485.912 271 489.956 264.076 C 492.180 260.267, 493.991 256.555, 493.980 255.826 C 493.970 255.096, 492.259 251.575, 490.180 248 L 486.398 241.500 477.850 241.213 L 469.301 240.927 465.151 248.096 M 89.620 401.857 L 83.741 407.820 85.493 415.160 C 86.457 419.197, 87.753 423.007, 88.373 423.627 C 88.993 424.247, 92.803 425.543, 96.840 426.507 L 104.180 428.259 110.143 422.380 C 116.733 415.882, 116.696 416.075, 113.440 405.108 C 112.004 400.273, 111.727 399.996, 106.892 398.560 C 95.925 395.304, 96.118 395.267, 89.620 401.857 M 407.129 398.068 C 403.625 399.080, 400.568 400.098, 400.337 400.330 C 400.105 400.562, 398.971 404.226, 397.816 408.474 L 395.717 416.197 401.821 422.301 L 407.925 428.405 415.212 426.555 C 419.221 425.537, 422.985 424.330, 423.577 423.873 C 424.170 423.416, 425.499 419.650, 426.531 415.506 L 428.408 407.970 422.485 401.985 C 419.228 398.693, 415.874 396.051, 415.031 396.113 C 414.189 396.176, 410.633 397.055, 407.129 398.068 M 248.250 465.100 L 241 469.153 241 477.462 L 241 485.772 247.925 489.886 C 251.733 492.149, 255.367 494, 256 494 C 256.633 494, 260.267 492.180, 264.076 489.956 L 271 485.912 271 477.570 L 271 469.228 264.075 465.114 C 260.267 462.851, 256.779 461.011, 256.325 461.024 C 255.871 461.037, 252.238 462.872, 248.250 465.100" stroke="none" fill="#a396a9" fill-rule="evenodd"/></svg>