<svg xmlns="http://www.w3.org/2000/svg" width="96" height="96" viewBox="0 0 96 96" version="1.1"><path d="M 39.640 23.632 C 30.238 26.520, 22 37.900, 22 48 C 22 61.305, 34.695 74, 48 74 C 61.305 74, 74 61.305, 74 48 C 74 37.632, 65.764 26.492, 55.941 23.575 C 49.506 21.664, 46.007 21.676, 39.640 23.632 M 38.015 28.706 C 22.933 36.633, 22.021 57.554, 36.372 66.426 C 50.702 75.286, 68.601 66.043, 69.780 49.173 C 70.613 37.262, 61.471 27.080, 49.173 26.220 C 44.394 25.886, 42.636 26.278, 38.015 28.706" stroke="none" fill="#c98efc" fill-rule="evenodd"/><path d="M 42.754 8.078 C 41.787 8.641, 40.723 10.878, 40.369 13.091 C 39.885 16.121, 39.049 17.440, 36.915 18.544 C 33.243 20.443, 32.015 20.358, 29 18 C 25.417 15.197, 22.840 15.538, 19.196 19.298 C 15.527 23.083, 15.234 25.463, 18 29 C 20.375 32.036, 20.445 33.238, 18.474 37.050 C 17.304 39.314, 16.257 40, 13.974 40 C 9.898 40, 7 43.144, 7 47.566 C 7 52.899, 8.506 54.897, 13.076 55.628 C 16.122 56.115, 17.439 56.948, 18.544 59.085 C 20.443 62.757, 20.358 63.985, 18 67 C 15.197 70.583, 15.538 73.160, 19.298 76.804 C 23.083 80.473, 25.463 80.766, 29 78 C 32.036 75.625, 33.238 75.555, 37.050 77.526 C 39.314 78.696, 40 79.743, 40 82.026 C 40 86.102, 43.144 89, 47.566 89 C 52.899 89, 54.897 87.494, 55.628 82.924 C 56.115 79.878, 56.948 78.561, 59.085 77.456 C 62.757 75.557, 63.985 75.642, 67 78 C 70.583 80.803, 73.160 80.462, 76.804 76.702 C 80.473 72.917, 80.766 70.537, 78 67 C 75.642 63.985, 75.557 62.757, 77.456 59.085 C 78.561 56.948, 79.878 56.115, 82.924 55.628 C 87.392 54.914, 89 52.895, 89 48 C 89 43.105, 87.392 41.086, 82.924 40.372 C 79.878 39.885, 78.561 39.052, 77.456 36.915 C 75.557 33.243, 75.642 32.015, 78 29 C 80.803 25.417, 80.462 22.840, 76.702 19.196 C 72.917 15.527, 70.537 15.234, 67 18 C 63.964 20.375, 62.762 20.445, 58.950 18.474 C 56.686 17.304, 56 16.257, 56 13.974 C 56 9.804, 52.863 6.993, 48.250 7.030 C 46.188 7.047, 43.714 7.518, 42.754 8.078 M 44.714 11.619 C 44.321 12.012, 44 13.323, 44 14.532 C 44 17.843, 40.622 21.475, 36.180 22.941 C 32.542 24.141, 31.875 24.058, 28.083 21.927 L 23.951 19.604 21.778 21.778 L 19.604 23.951 21.927 28.083 C 24.043 31.848, 24.135 32.560, 22.969 36.093 C 21.415 40.802, 19.592 42.549, 15 43.728 C 11.869 44.532, 11.500 44.983, 11.500 48 C 11.500 51.017, 11.869 51.468, 15 52.272 C 19.592 53.451, 21.415 55.198, 22.969 59.907 C 24.135 63.440, 24.043 64.152, 21.927 67.917 L 19.604 72.049 21.778 74.222 L 23.951 76.396 28.083 74.073 C 31.848 71.957, 32.560 71.865, 36.093 73.031 C 40.802 74.585, 42.549 76.408, 43.728 81 C 44.532 84.131, 44.983 84.500, 48 84.500 C 51.017 84.500, 51.468 84.131, 52.272 81 C 53.451 76.408, 55.198 74.585, 59.907 73.031 C 63.440 71.865, 64.152 71.957, 67.917 74.073 L 72.049 76.396 74.222 74.222 L 76.396 72.049 74.073 67.917 C 71.957 64.152, 71.865 63.440, 73.031 59.907 C 74.585 55.198, 76.408 53.451, 81 52.272 C 84.131 51.468, 84.500 51.017, 84.500 48 C 84.500 44.983, 84.131 44.532, 81 43.728 C 76.408 42.549, 74.585 40.802, 73.031 36.093 C 71.865 32.560, 71.957 31.848, 74.073 28.083 L 76.396 23.951 74.222 21.778 L 72.049 19.604 67.917 21.927 C 64.152 24.043, 63.440 24.135, 59.907 22.969 C 55.195 21.414, 53.448 19.589, 52.278 15 C 51.536 12.095, 50.879 11.449, 48.406 11.203 C 46.768 11.039, 45.107 11.227, 44.714 11.619 M 33.640 40.750 C 33.369 41.712, 32.864 44.525, 32.520 47 C 32.175 49.475, 31.656 52.737, 31.367 54.250 C 30.930 56.537, 31.191 57, 32.921 57 C 34.333 57, 35 56.359, 35 55 C 35 53.533, 35.667 53, 37.500 53 C 39.333 53, 40 53.533, 40 55 C 40 56.359, 40.667 57, 42.079 57 C 43.809 57, 44.070 56.537, 43.633 54.250 C 43.344 52.737, 42.825 49.475, 42.480 47 C 41.423 39.405, 41.171 39, 37.500 39 C 35.150 39, 33.986 39.528, 33.640 40.750 M 46 47.950 C 46 56.333, 46.147 57, 48 57 C 49.546 57, 50 56.333, 50 54.060 C 50 51.388, 50.339 51.093, 53.732 50.810 C 56.772 50.558, 57.642 49.990, 58.425 47.750 C 59.040 45.990, 59.040 44.010, 58.423 42.250 C 57.544 39.738, 56.965 39.474, 51.730 39.200 L 46 38.900 46 47.950 M 61 48 C 61 56.333, 61.148 57, 63 57 C 64.852 57, 65 56.333, 65 48 C 65 39.667, 64.852 39, 63 39 C 61.148 39, 61 39.667, 61 48 M 37.086 43 C 37.024 43.825, 36.701 45.513, 36.370 46.750 C 35.926 48.404, 36.195 49, 37.383 49 C 39.123 49, 39.256 47.922, 38 44 C 37.560 42.625, 37.148 42.175, 37.086 43 M 50 45 C 50 47.683, 50.327 48.093, 52.250 47.820 C 53.898 47.585, 54.500 46.831, 54.500 45 C 54.500 43.169, 53.898 42.415, 52.250 42.180 C 50.327 41.907, 50 42.317, 50 45" stroke="none" fill="#684bfc" fill-rule="evenodd"/></svg>