<svg xmlns="http://www.w3.org/2000/svg" width="512" height="512" viewBox="0 0 512 512" version="1.1"><path d="M 69 256 L 69 442 256 442 L 443 442 443 256 L 443 70 256 70 L 69 70 69 256 M 158.913 151.974 C 152.541 152.409, 144.103 153.088, 140.163 153.484 L 133 154.203 133 257.101 L 133 360 152.500 360 L 172 360 172 327 L 172 294 181.276 294 C 208.811 294, 229.835 287.435, 243.765 274.487 C 258.736 260.571, 264.754 241.977, 262.854 215.500 C 262.023 203.906, 259.812 195.456, 255.007 185.500 C 248.244 171.486, 238.144 162.284, 224.208 157.438 C 210.355 152.620, 183.002 150.331, 158.913 151.974 M 173.250 182.591 C 172.281 183.037, 172 192.024, 172 222.583 L 172 262 179.750 261.965 C 197.101 261.887, 210.468 257.555, 217.756 249.648 C 223.667 243.236, 226 236.027, 226 224.173 C 226 202.085, 218.474 189.280, 202.651 184.445 C 197.517 182.876, 175.629 181.496, 173.250 182.591 M 314.500 201.411 C 289.454 206.309, 275.709 219.738, 274.243 240.745 C 273.214 255.500, 277.967 268.703, 287.837 278.504 C 295.192 285.808, 302.195 290.074, 319.083 297.537 C 334.920 304.535, 340 308.641, 340 314.444 C 340 317.335, 339.302 318.849, 336.965 321.033 C 332.508 325.196, 327.710 326.503, 317 326.473 C 305.929 326.442, 296.985 324.068, 284.724 317.907 C 280.447 315.758, 276.285 314, 275.474 314 C 274.233 314, 274 316.696, 274 331.057 L 274 348.114 281.398 351.485 C 292.098 356.361, 300.470 358.720, 311.410 359.939 C 336.514 362.739, 359.547 354.921, 370.613 339.846 C 385.334 319.793, 380.380 290.827, 359.874 277.048 C 356.368 274.693, 346.178 269.209, 337.229 264.862 C 319.313 256.159, 313.599 251.709, 312.446 245.562 C 311.478 240.406, 312.636 237.129, 316.947 232.817 C 320.456 229.309, 321.215 229, 326.331 229 C 333.621 229, 345.093 232.696, 357.217 238.950 C 362.561 241.707, 367.579 243.715, 368.368 243.412 C 369.157 243.109, 370.066 241.880, 370.388 240.681 C 371.321 237.201, 371.090 215.368, 370.092 212.743 C 368.987 209.834, 360.497 205.823, 349.329 202.932 C 339.191 200.307, 323.621 199.628, 314.500 201.411" stroke="none" fill="#242454" fill-rule="evenodd"/><path d="M 31 256 L 31 480 256 480 L 481 480 481 256 L 481 32 256 32 L 31 32 31 256 M 69 256 L 69 442 256 442 L 443 442 443 256 L 443 70 256 70 L 69 70 69 256 M 158.913 151.974 C 152.541 152.409, 144.103 153.088, 140.163 153.484 L 133 154.203 133 257.101 L 133 360 152.500 360 L 172 360 172 327 L 172 294 181.276 294 C 208.811 294, 229.835 287.435, 243.765 274.487 C 258.736 260.571, 264.754 241.977, 262.854 215.500 C 262.023 203.906, 259.812 195.456, 255.007 185.500 C 248.244 171.486, 238.144 162.284, 224.208 157.438 C 210.355 152.620, 183.002 150.331, 158.913 151.974 M 173.250 182.591 C 172.281 183.037, 172 192.024, 172 222.583 L 172 262 179.750 261.965 C 197.101 261.887, 210.468 257.555, 217.756 249.648 C 223.667 243.236, 226 236.027, 226 224.173 C 226 202.085, 218.474 189.280, 202.651 184.445 C 197.517 182.876, 175.629 181.496, 173.250 182.591 M 314.500 201.411 C 289.454 206.309, 275.709 219.738, 274.243 240.745 C 273.214 255.500, 277.967 268.703, 287.837 278.504 C 295.192 285.808, 302.195 290.074, 319.083 297.537 C 334.920 304.535, 340 308.641, 340 314.444 C 340 317.335, 339.302 318.849, 336.965 321.033 C 332.508 325.196, 327.710 326.503, 317 326.473 C 305.929 326.442, 296.985 324.068, 284.724 317.907 C 280.447 315.758, 276.285 314, 275.474 314 C 274.233 314, 274 316.696, 274 331.057 L 274 348.114 281.398 351.485 C 292.098 356.361, 300.470 358.720, 311.410 359.939 C 336.514 362.739, 359.547 354.921, 370.613 339.846 C 385.334 319.793, 380.380 290.827, 359.874 277.048 C 356.368 274.693, 346.178 269.209, 337.229 264.862 C 319.313 256.159, 313.599 251.709, 312.446 245.562 C 311.478 240.406, 312.636 237.129, 316.947 232.817 C 320.456 229.309, 321.215 229, 326.331 229 C 333.621 229, 345.093 232.696, 357.217 238.950 C 362.561 241.707, 367.579 243.715, 368.368 243.412 C 369.157 243.109, 370.066 241.880, 370.388 240.681 C 371.321 237.201, 371.090 215.368, 370.092 212.743 C 368.987 209.834, 360.497 205.823, 349.329 202.932 C 339.191 200.307, 323.621 199.628, 314.500 201.411" stroke="none" fill="#83bbf3" fill-rule="evenodd"/></svg>