<svg xmlns="http://www.w3.org/2000/svg" width="380" height="380" viewBox="0 0 380 380" version="1.1"><path d="M 245.135 75.468 C 245.963 76.296, 253 79.044, 253 78.539 C 253 77.829, 247.312 75, 245.883 75 C 245.214 75, 244.877 75.211, 245.135 75.468 M 186 113.050 C 184.782 113.962, 184.943 114.075, 186.857 113.652 C 189.774 113.007, 193.783 114.461, 196.750 117.241 C 197.988 118.400, 199 118.899, 199 118.349 C 199 114.682, 189.171 110.677, 186 113.050 M 97 120 C 96.411 121.100, 96.155 122, 96.430 122 C 96.705 122, 97.411 121.100, 98 120 C 98.589 118.900, 98.845 118, 98.570 118 C 98.295 118, 97.589 118.900, 97 120 M 178.630 120.250 C 177.607 124.068, 177.947 186.371, 179 188 C 179.636 188.985, 179.975 177.761, 179.985 155.332 C 179.993 136.539, 180.273 120.452, 180.607 119.582 C 180.941 118.712, 180.768 118, 180.224 118 C 179.679 118, 178.962 119.013, 178.630 120.250 M 198.920 154.750 C 198.536 186.979, 198.950 195.504, 200.476 186.750 C 200.787 184.963, 200.659 169.100, 200.191 151.500 L 199.340 119.500 198.920 154.750 M 147.904 127.665 C 146.477 128.551, 144.797 130.095, 144.172 131.096 C 143.299 132.494, 143.900 132.328, 146.768 130.379 C 149.498 128.523, 151.488 127.936, 154.181 128.191 C 157.068 128.465, 157.635 128.266, 156.809 127.270 C 155.364 125.529, 151.036 125.721, 147.904 127.665 M 222.434 127.107 C 221.980 127.841, 222.421 128.001, 223.743 127.582 C 226.023 126.858, 230.545 128.350, 233.551 130.817 C 234.679 131.742, 234.124 131.037, 232.316 129.250 C 228.953 125.924, 223.849 124.818, 222.434 127.107 M 218.073 130.635 C 216.933 132.084, 216 134.723, 216 136.500 C 216 139.678, 219.208 145, 221.123 145 C 221.662 145, 220.954 143.495, 219.551 141.656 C 216.459 137.602, 216.309 134.148, 219.073 130.635 C 220.212 129.186, 220.920 128, 220.645 128 C 220.370 128, 219.212 129.186, 218.073 130.635 M 161.179 134.083 C 162.097 136.717, 161.931 137.602, 160.039 140.162 C 158.821 141.809, 158.125 143.459, 158.494 143.827 C 159.337 144.671, 161.904 141.228, 162.652 138.250 C 163.334 135.532, 162.322 131, 161.033 131 C 160.493 131, 160.554 132.290, 161.179 134.083 M 290 134 C 290.589 135.100, 291.295 136, 291.570 136 C 291.845 136, 291.589 135.100, 291 134 C 290.411 132.900, 289.705 132, 289.430 132 C 289.155 132, 289.411 132.900, 290 134 M 86 139 C 85.411 140.100, 85.155 141, 85.430 141 C 85.705 141, 86.411 140.100, 87 139 C 87.589 137.900, 87.845 137, 87.570 137 C 87.295 137, 86.589 137.900, 86 139 M 134.405 141.250 L 132.500 143.500 134.750 141.595 C 136.864 139.805, 137.455 139, 136.655 139 C 136.465 139, 135.453 140.012, 134.405 141.250 M 294 141 C 294.589 142.100, 295.295 143, 295.570 143 C 295.845 143, 295.589 142.100, 295 141 C 294.411 139.900, 293.705 139, 293.430 139 C 293.155 139, 293.411 139.900, 294 141 M 153.405 147.250 L 151.500 149.500 153.750 147.595 C 154.988 146.547, 156 145.535, 156 145.345 C 156 144.545, 155.195 145.136, 153.405 147.250 M 298 148 C 298.589 149.100, 299.295 150, 299.570 150 C 299.845 150, 299.589 149.100, 299 148 C 298.411 146.900, 297.705 146, 297.430 146 C 297.155 146, 297.411 146.900, 298 148 M 125.748 154.250 C 120.509 164.781, 118.687 172.694, 118.666 185 C 118.618 212.475, 133.761 236.723, 158.623 248.981 C 161.990 250.642, 165.590 251.989, 166.623 251.976 C 167.655 251.963, 166.025 250.933, 163 249.687 C 152.108 245.200, 138.780 234.354, 131.940 224.412 C 127.571 218.062, 123.244 208.158, 121.376 200.230 C 117.971 185.778, 121.189 163.979, 128.608 151.250 C 129.970 148.912, 130.695 147, 130.220 147 C 129.744 147, 127.732 150.262, 125.748 154.250 M 248.964 148.836 C 249.623 150.120, 250.436 150.897, 250.771 150.562 C 251.107 150.227, 250.568 149.176, 249.574 148.226 C 247.846 146.576, 247.819 146.603, 248.964 148.836 M 79 151 C 78.411 152.100, 78.155 153, 78.430 153 C 78.705 153, 79.411 152.100, 80 151 C 80.589 149.900, 80.845 149, 80.570 149 C 80.295 149, 79.589 149.900, 79 151 M 75 158 C 74.411 159.100, 74.155 160, 74.430 160 C 74.705 160, 75.411 159.100, 76 158 C 76.589 156.900, 76.845 156, 76.570 156 C 76.295 156, 75.589 156.900, 75 158 M 253.015 156.691 C 253.024 157.136, 253.467 158.175, 254 159 C 254.835 160.293, 254.971 160.266, 254.985 158.809 C 254.993 157.879, 254.550 156.840, 254 156.500 C 253.450 156.160, 253.007 156.246, 253.015 156.691 M 305 160 C 305.589 161.100, 306.295 162, 306.570 162 C 306.845 162, 306.589 161.100, 306 160 C 305.411 158.900, 304.705 158, 304.430 158 C 304.155 158, 304.411 158.900, 305 160 M 72 163 C 71.411 164.100, 71.155 165, 71.430 165 C 71.705 165, 72.411 164.100, 73 163 C 73.589 161.900, 73.845 161, 73.570 161 C 73.295 161, 72.589 161.900, 72 163 M 68 170 C 67.411 171.100, 67.155 172, 67.430 172 C 67.705 172, 68.411 171.100, 69 170 C 69.589 168.900, 69.845 168, 69.570 168 C 69.295 168, 68.589 168.900, 68 170 M 258.458 183.695 C 258.494 195.421, 258.149 198.629, 256.168 205 C 250.437 223.436, 238.216 237.978, 220.863 247.009 C 211.545 251.859, 204.062 253.857, 191.266 254.914 L 181.500 255.720 189.500 255.843 C 200.665 256.014, 209.924 253.819, 221 248.375 C 228.955 244.465, 231.882 242.306, 239 235.103 C 243.675 230.371, 248.994 223.951, 250.821 220.835 C 257.590 209.287, 261.806 191.264, 260.459 179.639 C 259.146 168.306, 258.415 169.788, 258.458 183.695 M 180 190.723 C 180 191.981, 182.858 194.475, 183.530 193.803 C 183.795 193.538, 183.110 192.504, 182.006 191.506 C 180.903 190.507, 180 190.155, 180 190.723 M 195.241 192.681 C 193.998 193.547, 191.523 194.603, 189.741 195.026 C 186.683 195.752, 186.652 195.801, 189.203 195.898 C 192.502 196.023, 196.704 194.215, 197.414 192.365 C 198.046 190.716, 198.061 190.714, 195.241 192.681 M 79 228 C 79.589 229.100, 80.295 230, 80.570 230 C 80.845 230, 80.589 229.100, 80 228 C 79.411 226.900, 78.705 226, 78.430 226 C 78.155 226, 78.411 226.900, 79 228 M 83 235 C 83.589 236.100, 84.295 237, 84.570 237 C 84.845 237, 84.589 236.100, 84 235 C 83.411 233.900, 82.705 233, 82.430 233 C 82.155 233, 82.411 233.900, 83 235 M 187.921 237.321 C 188.606 238.006, 189.675 237.989, 191.217 237.268 C 193.352 236.270, 193.287 236.204, 190.204 236.254 C 187.976 236.290, 187.236 236.636, 187.921 237.321 M 177.750 254.662 C 178.438 254.940, 179.563 254.940, 180.250 254.662 C 180.938 254.385, 180.375 254.158, 179 254.158 C 177.625 254.158, 177.063 254.385, 177.750 254.662 M 98 261 C 98.589 262.100, 99.295 263, 99.570 263 C 99.845 263, 99.589 262.100, 99 261 C 98.411 259.900, 97.705 259, 97.430 259 C 97.155 259, 97.411 259.900, 98 261 M 279 264 C 278.411 265.100, 278.155 266, 278.430 266 C 278.705 266, 279.411 265.100, 280 264 C 280.589 262.900, 280.845 262, 280.570 262 C 280.295 262, 279.589 262.900, 279 264 M 275 271 C 274.411 272.100, 274.155 273, 274.430 273 C 274.705 273, 275.411 272.100, 276 271 C 276.589 269.900, 276.845 269, 276.570 269 C 276.295 269, 275.589 269.900, 275 271 M 246 303 C 244.667 303.862, 244.667 303.969, 246 303.969 C 246.825 303.969, 248.175 303.533, 249 303 C 250.333 302.138, 250.333 302.031, 249 302.031 C 248.175 302.031, 246.825 302.467, 246 303" stroke="none" fill="#85b75e" fill-rule="evenodd"/><path d="M 132 76.015 C 132 76.522, 131.325 76.678, 130.500 76.362 C 129.675 76.045, 129 76.311, 129 76.952 C 129 77.593, 128.550 77.840, 128 77.500 C 127.450 77.160, 127 77.385, 127 78 C 127 78.615, 126.547 78.838, 125.993 78.496 C 125.439 78.153, 124.717 78.574, 124.388 79.431 C 124.059 80.288, 123.459 80.784, 123.054 80.533 C 122.648 80.283, 120.783 81.703, 118.908 83.689 C 117.034 85.675, 116.175 86.934, 117 86.487 C 117.825 86.039, 117.237 86.873, 115.694 88.341 C 114.150 89.808, 113.135 91.410, 113.438 91.900 C 113.741 92.390, 113.288 93.059, 112.431 93.388 C 111.574 93.717, 111.153 94.439, 111.496 94.993 C 111.838 95.547, 111.657 96, 111.094 96 C 110.531 96, 109.560 96.954, 108.935 98.121 C 108.020 99.831, 108.062 100.104, 109.150 99.534 C 109.893 99.145, 109.540 99.653, 108.367 100.663 C 105.646 103.006, 103.134 107.591, 105.150 106.534 C 105.893 106.145, 105.540 106.653, 104.367 107.663 C 101.639 110.013, 99.141 114.581, 101.150 113.547 C 101.893 113.164, 101.626 113.560, 100.559 114.426 C 99.491 115.292, 99.015 116, 99.500 116 C 99.985 116, 99.509 116.708, 98.441 117.574 C 97.374 118.440, 97.107 118.836, 97.850 118.453 C 98.938 117.894, 98.979 118.170, 98.065 119.879 C 97.440 121.046, 96.511 122, 96 122 C 95.489 122, 94.560 122.954, 93.935 124.121 C 93.021 125.830, 93.062 126.106, 94.150 125.547 C 94.893 125.164, 94.719 125.492, 93.766 126.275 C 92.812 127.057, 92.324 127.991, 92.682 128.349 C 93.040 128.707, 92.824 129, 92.202 129 C 91.580 129, 90.560 129.954, 89.935 131.121 C 89.017 132.836, 89.058 133.092, 90.150 132.457 C 90.893 132.026, 90.263 132.850, 88.750 134.289 C 85.986 136.917, 85.050 138.705, 87.100 137.438 C 87.873 136.961, 87.862 137.389, 87.065 138.879 C 86.440 140.046, 85.511 141, 85 141 C 84.489 141, 83.560 141.954, 82.935 143.121 C 82.017 144.836, 82.058 145.092, 83.150 144.457 C 83.893 144.026, 83.263 144.850, 81.750 146.289 C 78.986 148.917, 78.050 150.705, 80.100 149.438 C 80.873 148.961, 80.862 149.389, 80.065 150.879 C 79.440 152.046, 78.420 153, 77.798 153 C 77.176 153, 76.960 153.293, 77.318 153.651 C 77.676 154.009, 77.188 154.943, 76.234 155.725 C 75.281 156.508, 75.063 156.863, 75.750 156.515 C 77.854 155.450, 77.147 156.956, 74.250 159.711 C 72.737 161.150, 72.107 161.974, 72.850 161.543 C 73.942 160.908, 73.983 161.164, 73.065 162.879 C 72.440 164.046, 71.511 165, 71 165 C 70.489 165, 69.560 165.954, 68.935 167.121 C 68.064 168.749, 68.079 169.069, 69 168.500 C 69.921 167.931, 69.936 168.251, 69.065 169.879 C 68.440 171.046, 67.469 172, 66.906 172 C 66.343 172, 66.160 172.450, 66.500 173 C 66.840 173.550, 66.615 174, 66 174 C 65.385 174, 65.160 174.450, 65.500 175 C 65.840 175.550, 65.615 176, 65 176 C 64.385 176, 64.160 176.450, 64.500 177 C 64.840 177.550, 64.615 178, 64 178 C 63.385 178, 63.160 178.450, 63.500 179 C 63.840 179.550, 63.593 180, 62.951 180 C 62.195 180, 62.012 180.911, 62.432 182.584 C 62.852 184.259, 62.715 184.942, 62.040 184.525 C 61.372 184.112, 61 185.711, 61 189 C 61 192.592, 61.342 193.907, 62.146 193.410 C 62.952 192.911, 63.095 193.486, 62.627 195.351 C 62.216 196.989, 62.373 198, 63.040 198 C 63.633 198, 63.886 198.376, 63.601 198.836 C 62.863 200.031, 68.695 212, 70.017 212 C 70.622 212, 70.840 212.450, 70.500 213 C 70.160 213.550, 70.434 214, 71.108 214 C 71.782 214, 72.040 214.293, 71.682 214.651 C 71.324 215.009, 71.812 215.943, 72.766 216.725 C 73.923 217.675, 74.001 217.933, 73 217.500 C 72.175 217.143, 72.374 217.560, 73.441 218.426 C 74.509 219.292, 74.985 220, 74.500 220 C 74.015 220, 74.491 220.708, 75.559 221.574 C 76.626 222.440, 76.893 222.836, 76.150 222.453 C 75.062 221.894, 75.021 222.170, 75.935 223.879 C 76.560 225.046, 77.489 226, 78 226 C 78.511 226, 79.440 226.954, 80.065 228.121 C 80.936 229.749, 80.921 230.069, 80 229.500 C 79.079 228.931, 79.064 229.251, 79.935 230.879 C 80.560 232.046, 81.489 233, 82 233 C 82.511 233, 83.440 233.954, 84.065 235.121 C 84.862 236.611, 84.873 237.039, 84.100 236.562 C 82.050 235.295, 82.986 237.083, 85.750 239.711 C 87.263 241.150, 87.893 241.974, 87.150 241.543 C 85.090 240.346, 87.693 245.034, 90.367 247.337 C 91.540 248.347, 91.893 248.855, 91.150 248.466 C 90.062 247.896, 90.020 248.169, 90.935 249.879 C 91.560 251.046, 92.580 252, 93.202 252 C 93.824 252, 94.040 252.293, 93.682 252.651 C 93.324 253.009, 93.812 253.943, 94.766 254.725 C 95.719 255.508, 95.893 255.836, 95.150 255.453 C 94.062 254.894, 94.021 255.170, 94.935 256.879 C 95.560 258.046, 96.489 259, 97 259 C 97.511 259, 98.440 259.954, 99.065 261.121 C 99.862 262.611, 99.873 263.039, 99.100 262.562 C 97.050 261.295, 97.986 263.083, 100.750 265.711 C 102.262 267.150, 102.893 267.974, 102.150 267.543 C 100.090 266.346, 102.693 271.034, 105.367 273.337 C 106.540 274.347, 106.893 274.855, 106.150 274.466 C 104.134 273.409, 106.646 277.994, 109.367 280.337 C 110.540 281.347, 110.938 281.883, 110.250 281.528 C 108.140 280.438, 108.857 281.960, 111.750 284.711 C 113.262 286.150, 113.825 286.933, 113 286.452 C 111.882 285.800, 111.979 286.332, 113.380 288.539 C 115.852 292.431, 123.273 299.950, 124.123 299.424 C 124.490 299.197, 125.066 299.731, 125.404 300.609 C 125.753 301.521, 126.658 301.961, 127.508 301.635 C 128.329 301.320, 129 301.525, 129 302.090 C 129 302.656, 129.450 302.840, 130 302.500 C 130.550 302.160, 131 302.316, 131 302.847 C 131 303.378, 132.012 303.591, 133.250 303.320 C 135.116 302.911, 135.244 303.025, 134 303.991 C 132.013 305.533, 243.052 304.578, 245.948 303.028 C 248.490 301.667, 251.099 301.644, 249 303 C 248 303.646, 247.917 303.974, 248.750 303.985 C 249.437 303.993, 250.862 303.138, 251.917 302.083 C 252.971 301.029, 254.085 300.419, 254.393 300.726 C 254.701 301.034, 255.236 300.549, 255.581 299.649 C 255.927 298.748, 256.544 298.218, 256.952 298.470 C 257.360 298.722, 259 297.525, 260.597 295.810 C 262.194 294.094, 262.825 293.024, 262 293.432 C 261.175 293.840, 261.625 293.245, 263 292.109 C 264.375 290.974, 265.050 290.021, 264.500 289.992 C 263.950 289.963, 264.297 289.475, 265.271 288.908 C 266.245 288.341, 266.810 287.502, 266.527 287.043 C 266.243 286.585, 266.712 285.941, 267.569 285.612 C 268.426 285.283, 268.847 284.561, 268.504 284.007 C 268.162 283.453, 268.343 283, 268.906 283 C 269.469 283, 270.440 282.046, 271.065 280.879 C 271.979 279.170, 271.938 278.894, 270.850 279.453 C 270.107 279.836, 270.281 279.508, 271.234 278.725 C 272.188 277.943, 272.676 277.009, 272.318 276.651 C 271.960 276.293, 272.176 276, 272.798 276 C 273.420 276, 274.440 275.046, 275.065 273.879 C 275.936 272.251, 275.921 271.931, 275 272.500 C 274.079 273.069, 274.064 272.749, 274.935 271.121 C 275.560 269.954, 276.489 269, 277 269 C 277.511 269, 278.440 268.046, 279.065 266.879 C 279.936 265.251, 279.921 264.931, 279 265.500 C 278.079 266.069, 278.064 265.749, 278.935 264.121 C 279.560 262.954, 280.489 262, 281 262 C 281.511 262, 282.440 261.046, 283.065 259.879 C 283.979 258.170, 283.938 257.894, 282.850 258.453 C 282.107 258.836, 282.374 258.440, 283.441 257.574 C 284.509 256.708, 284.985 256, 284.500 256 C 284.015 256, 284.491 255.292, 285.559 254.426 C 286.626 253.560, 286.825 253.143, 286 253.500 C 284.999 253.933, 285.077 253.675, 286.234 252.725 C 287.188 251.943, 287.676 251.009, 287.318 250.651 C 286.960 250.293, 287.267 250, 288 250 C 288.733 250, 289.040 249.707, 288.682 249.349 C 288.324 248.991, 288.812 248.057, 289.766 247.275 C 290.923 246.325, 291.001 246.067, 290 246.500 C 288.999 246.933, 289.077 246.675, 290.234 245.725 C 291.188 244.943, 291.676 244.009, 291.318 243.651 C 290.960 243.293, 291.176 243, 291.798 243 C 292.420 243, 293.440 242.046, 294.065 240.879 C 294.980 239.169, 294.938 238.896, 293.850 239.466 C 293.107 239.855, 293.460 239.347, 294.633 238.337 C 297.361 235.987, 299.859 231.419, 297.850 232.453 C 297.107 232.836, 297.374 232.440, 298.441 231.574 C 299.509 230.708, 300.071 230, 299.691 230 C 299.311 230, 299.916 229.084, 301.036 227.964 C 302.157 226.843, 302.805 225.493, 302.477 224.964 C 302.150 224.434, 302.434 224, 303.108 224 C 303.782 224, 304.040 223.707, 303.682 223.349 C 303.324 222.991, 303.812 222.057, 304.766 221.275 C 305.923 220.325, 306.001 220.067, 305 220.500 C 304.175 220.857, 304.374 220.440, 305.441 219.574 C 306.509 218.708, 307.071 218, 306.691 218 C 306.311 218, 306.916 217.084, 308.036 215.964 C 309.157 214.843, 309.805 213.493, 309.477 212.964 C 309.150 212.434, 309.385 212, 310 212 C 310.615 212, 310.840 211.550, 310.500 211 C 310.160 210.450, 310.347 210, 310.915 210 C 312.213 210, 315.142 204.475, 314.293 203.627 C 313.949 203.282, 314.218 203, 314.892 203 C 315.566 203, 315.840 202.550, 315.500 202 C 315.160 201.450, 315.407 201, 316.048 201 C 316.689 201, 316.955 200.325, 316.638 199.500 C 316.322 198.675, 316.417 198, 316.850 198 C 317.282 198, 317.636 194.199, 317.636 189.553 C 317.636 184.631, 317.250 181.345, 316.711 181.679 C 316.181 182.006, 316.074 181.342, 316.460 180.125 C 316.899 178.742, 316.704 178, 315.901 178 C 315.222 178, 314.949 177.718, 315.293 177.373 C 316.142 176.525, 313.213 171, 311.915 171 C 311.347 171, 311.160 170.550, 311.500 170 C 311.840 169.450, 311.566 169, 310.892 169 C 310.218 169, 309.960 168.707, 310.318 168.349 C 310.676 167.991, 310.188 167.057, 309.234 166.275 C 308.281 165.492, 308.107 165.164, 308.850 165.547 C 309.938 166.106, 309.979 165.830, 309.065 164.121 C 308.440 162.954, 307.511 162, 307 162 C 306.489 162, 305.560 161.046, 304.935 159.879 C 304.021 158.170, 304.062 157.894, 305.150 158.453 C 305.893 158.836, 305.626 158.440, 304.559 157.574 C 303.491 156.708, 303.015 156, 303.500 156 C 303.985 156, 303.509 155.292, 302.441 154.426 C 301.374 153.560, 301.100 153.160, 301.833 153.536 C 302.821 154.043, 302.750 153.417, 301.557 151.110 C 300.672 149.400, 299.709 148, 299.415 148 C 299.122 148, 299.160 148.450, 299.500 149 C 299.840 149.550, 299.882 150, 299.594 150 C 299.306 150, 298.560 149.046, 297.935 147.879 C 297.064 146.251, 297.079 145.931, 298 146.500 C 298.921 147.069, 298.936 146.749, 298.065 145.121 C 297.440 143.954, 296.511 143, 296 143 C 295.489 143, 294.560 142.046, 293.935 140.879 C 293.064 139.251, 293.079 138.931, 294 139.500 C 294.921 140.069, 294.936 139.749, 294.065 138.121 C 293.440 136.954, 292.511 136, 292 136 C 291.489 136, 290.560 135.046, 289.935 133.879 C 289.021 132.170, 289.062 131.894, 290.150 132.453 C 290.893 132.836, 290.626 132.440, 289.559 131.574 C 288.491 130.708, 288.015 130, 288.500 130 C 288.985 130, 288.509 129.292, 287.441 128.426 C 286.374 127.560, 286.175 127.143, 287 127.500 C 287.825 127.857, 287.626 127.440, 286.559 126.574 C 285.491 125.708, 285.015 125, 285.500 125 C 285.985 125, 285.509 124.292, 284.441 123.426 C 283.374 122.560, 283.107 122.164, 283.850 122.547 C 284.938 123.106, 284.979 122.830, 284.065 121.121 C 283.440 119.954, 282.420 119, 281.798 119 C 281.176 119, 280.960 118.707, 281.318 118.349 C 281.676 117.991, 281.188 117.057, 280.234 116.275 C 279.281 115.492, 279.107 115.164, 279.850 115.547 C 280.938 116.106, 280.979 115.830, 280.065 114.121 C 279.440 112.954, 278.469 112, 277.906 112 C 277.343 112, 277.150 111.566, 277.477 111.036 C 277.805 110.507, 277.269 109.232, 276.286 108.203 C 275.304 107.175, 274.363 105.696, 274.195 104.917 C 274.027 104.138, 273.352 103.048, 272.695 102.496 C 272.038 101.944, 271.363 100.819, 271.195 99.996 C 271.027 99.173, 270.127 97.918, 269.195 97.207 C 268.263 96.496, 267.616 95.596, 267.758 95.207 C 267.900 94.818, 267.375 93.751, 266.590 92.835 C 265.806 91.918, 265.417 90.917, 265.725 90.608 C 266.034 90.300, 265.549 89.764, 264.649 89.419 C 263.748 89.073, 263.237 88.426, 263.512 87.980 C 264.177 86.905, 259.047 80.853, 258.014 81.492 C 257.571 81.765, 256.963 81.346, 256.661 80.560 C 256.360 79.774, 255.133 78.606, 253.936 77.966 C 252.314 77.097, 251.940 77.094, 252.470 77.952 C 252.861 78.585, 251.453 78.292, 249.341 77.301 C 245.800 75.641, 241.071 75.484, 188.750 75.296 C 154.607 75.173, 132 75.459, 132 76.015 M 186.244 112.619 C 185.553 112.922, 185.242 113.582, 185.553 114.085 C 185.864 114.588, 185.641 115.056, 185.059 115.125 C 184.477 115.194, 183.588 115.306, 183.083 115.375 C 182.579 115.444, 181.792 115.910, 181.333 116.410 C 180.850 116.938, 181.020 117.022, 181.739 116.608 C 182.560 116.136, 182.785 116.397, 182.406 117.385 C 182.092 118.204, 181.256 118.652, 180.549 118.380 C 179.808 118.096, 179.001 118.865, 178.645 120.193 C 177.612 124.052, 177.938 186.356, 179 188 C 179.533 188.825, 179.976 189.101, 179.985 188.612 C 179.993 188.124, 181.238 189.249, 182.750 191.112 C 185.010 193.896, 186.124 194.469, 189 194.327 L 192.500 194.154 189.500 194.959 L 186.500 195.763 189.203 195.882 C 192.587 196.030, 196.707 194.206, 197.468 192.223 C 197.968 190.920, 197.807 190.904, 196.273 192.109 C 194.661 193.374, 194.625 193.341, 195.872 191.750 C 196.627 190.787, 197.812 190, 198.506 190 C 199.199 190, 200.037 188.988, 200.368 187.750 C 200.699 186.512, 200.677 170.915, 200.320 153.089 L 199.670 120.677 197.037 118.089 C 195.516 116.593, 195.374 116.313, 196.702 117.424 C 199.729 119.959, 199.679 117.986, 196.643 115.135 C 194.300 112.933, 188.642 111.564, 186.244 112.619 M 180.385 132 C 180.385 138.875, 180.545 141.688, 180.740 138.250 C 180.936 134.813, 180.936 129.188, 180.740 125.750 C 180.545 122.313, 180.385 125.125, 180.385 132 M 147.750 127.758 C 145.101 129.401, 143.701 131.866, 146.250 130.399 C 146.976 129.981, 147.151 130.061, 146.667 130.590 C 146.208 131.090, 145.533 131.536, 145.167 131.580 C 144.800 131.624, 141.800 134.312, 138.500 137.554 C 135.200 140.796, 133.425 142.785, 134.555 141.974 C 135.685 141.163, 135.235 141.797, 133.555 143.382 C 131.875 144.967, 131.132 145.910, 131.905 145.477 C 132.842 144.952, 133.072 145.075, 132.595 145.845 C 132.203 146.480, 131.313 147, 130.618 147 C 128.879 147, 122.516 160.094, 120.413 168 C 117.862 177.588, 118.052 193.376, 120.837 203.309 C 123.895 214.217, 130.949 227.768, 132.931 226.543 C 133.359 226.278, 134.787 227.285, 136.105 228.781 L 138.500 231.500 135.750 229.076 C 130.976 224.867, 132.772 228.494, 138.323 234.271 C 147.220 243.531, 162.961 252.729, 167.822 251.508 C 169.440 251.103, 169.948 251.276, 169.459 252.067 C 168.963 252.869, 169.427 252.999, 171 252.500 C 172.468 252.034, 173.025 252.150, 172.603 252.834 C 172.175 253.525, 173.237 253.704, 175.728 253.358 C 178.259 253.007, 179.059 253.146, 178.159 253.783 C 177.282 254.402, 180.056 254.649, 186.159 254.494 C 194.987 254.269, 195.115 254.294, 188.500 254.948 L 181.500 255.640 189.500 255.802 C 200.603 256.028, 209.878 253.841, 221 248.375 C 228.891 244.496, 231.982 242.229, 239.250 234.988 C 244.063 230.193, 248 225.704, 248 225.013 C 248 224.046, 247.595 224.073, 246.250 225.128 C 244.671 226.366, 244.632 226.332, 245.846 224.782 C 246.586 223.837, 247.691 223.162, 248.301 223.282 C 250.077 223.631, 256.490 209.884, 258.537 201.340 C 260.532 193.009, 261.033 180.115, 259.617 173.500 C 258.879 170.053, 258.637 169.776, 257.861 171.500 C 257.181 173.014, 257.084 172.697, 257.466 170.200 C 257.817 167.902, 257.627 167.113, 256.839 167.599 C 256.047 168.089, 255.914 167.479, 256.394 165.565 C 256.843 163.776, 256.721 163.054, 256.040 163.475 C 254.990 164.124, 254.806 163.547, 254.608 159 C 254.549 157.625, 254.009 156.589, 253.410 156.697 C 252.810 156.805, 251.565 155.311, 250.643 153.377 C 249.721 151.443, 249.424 150.144, 249.983 150.490 C 251.685 151.541, 251.117 149.340, 249.308 147.872 C 248.158 146.940, 247.857 146.901, 248.367 147.750 C 249.860 150.236, 248.186 148.932, 246.440 146.250 C 245.162 144.286, 245.069 143.786, 246.114 144.500 C 246.919 145.050, 246.418 144.375, 245 143 C 243.582 141.625, 243.090 140.950, 243.906 141.500 C 244.723 142.050, 241.709 138.759, 237.210 134.186 C 229.871 126.727, 228.693 125.903, 225.765 126.186 C 223.969 126.359, 222.571 126.950, 222.657 127.500 C 222.743 128.050, 221.618 129.369, 220.157 130.431 C 217.518 132.350, 217.510 132.349, 219 130.382 C 219.825 129.293, 219.488 129.462, 218.250 130.757 C 215.386 133.754, 215.308 138.851, 218.073 142.365 C 219.212 143.814, 220.632 145, 221.228 145 C 221.823 145, 221.468 143.988, 220.439 142.750 C 219.411 141.512, 221.354 143.174, 224.758 146.443 C 228.162 149.711, 230.737 152.596, 230.480 152.853 C 230.223 153.110, 230.917 153.954, 232.023 154.729 C 233.129 155.503, 233.774 156.556, 233.458 157.068 C 233.141 157.581, 233.385 158, 234 158 C 234.615 158, 234.869 158.403, 234.565 158.895 C 234.260 159.388, 234.731 160.066, 235.609 160.404 C 236.550 160.764, 236.964 161.652, 236.615 162.560 C 236.229 163.567, 236.426 163.855, 237.181 163.388 C 237.955 162.910, 238.128 163.225, 237.701 164.336 C 237.350 165.252, 237.546 166, 238.138 166 C 238.730 166, 238.955 166.675, 238.638 167.500 C 238.322 168.325, 238.529 169, 239.099 169 C 239.700 169, 239.852 169.892, 239.460 171.125 C 238.963 172.691, 239.119 173.045, 240.050 172.469 C 240.971 171.900, 241.162 172.273, 240.751 173.843 C 240.441 175.028, 240.596 176.250, 241.094 176.558 C 241.592 176.866, 242 180.943, 242 185.618 C 242 191.248, 241.649 193.901, 240.960 193.475 C 240.285 193.058, 240.148 193.741, 240.568 195.416 C 240.947 196.923, 240.794 198, 240.202 198 C 239.644 198, 239.405 198.833, 239.671 199.851 C 239.937 200.869, 239.467 202.390, 238.625 203.232 C 237.784 204.073, 237.332 204.999, 237.621 205.288 C 238.398 206.065, 235.121 212, 233.915 212 C 233.347 212, 233.162 212.453, 233.504 213.007 C 233.847 213.561, 233.426 214.283, 232.569 214.612 C 231.712 214.941, 231.204 215.521, 231.440 215.903 C 231.851 216.569, 222.169 226.500, 221.109 226.500 C 220.824 226.500, 219.554 227.537, 218.287 228.804 C 217.020 230.071, 215.537 230.832, 214.992 230.495 C 214.446 230.158, 214 230.385, 214 231 C 214 231.615, 213.550 231.840, 213 231.500 C 212.450 231.160, 212 231.385, 212 232 C 212 232.615, 211.588 232.864, 211.085 232.553 C 210.582 232.242, 210.013 232.460, 209.821 233.038 C 209.628 233.616, 208.465 234.165, 207.235 234.257 C 206.006 234.350, 205 234.832, 205 235.329 C 205 235.827, 204.100 235.998, 203 235.710 C 201.900 235.423, 201 235.631, 201 236.173 C 201 236.750, 199.652 236.893, 197.750 236.519 C 195.333 236.043, 194.884 236.146, 196 236.924 C 197.168 237.738, 196.725 237.969, 194 237.969 C 191.472 237.969, 190.906 237.713, 191.960 237.046 C 193.022 236.374, 192.553 236.146, 190.245 236.212 C 188.498 236.262, 187.305 236.684, 187.593 237.151 C 187.882 237.618, 186.741 238, 185.059 238 C 183.377 238, 182 237.592, 182 237.094 C 182 236.595, 181.151 236.409, 180.113 236.681 C 179.075 236.952, 177.936 236.705, 177.581 236.131 C 177.226 235.557, 176.275 235.341, 175.468 235.651 C 174.661 235.960, 174 235.730, 174 235.138 C 174 234.547, 173.325 234.322, 172.500 234.638 C 171.675 234.955, 171 234.689, 171 234.048 C 171 233.407, 170.563 233.152, 170.029 233.482 C 168.801 234.241, 163 231.298, 163 229.915 C 163 229.347, 162.547 229.162, 161.993 229.504 C 161.439 229.847, 160.717 229.426, 160.388 228.569 C 160.059 227.712, 159.465 227.213, 159.067 227.458 C 158.669 227.704, 155.693 225.227, 152.453 221.953 C 149.213 218.679, 146.986 216, 147.504 216 C 148.021 216, 147.437 215.294, 146.206 214.432 C 144.974 213.569, 144.226 212.444, 144.542 211.932 C 144.859 211.419, 144.615 211, 144 211 C 143.385 211, 143.160 210.550, 143.500 210 C 143.840 209.450, 143.615 209, 143 209 C 142.385 209, 142.160 208.550, 142.500 208 C 142.840 207.450, 142.615 207, 142 207 C 141.385 207, 141.160 206.550, 141.500 206 C 141.840 205.450, 141.593 205, 140.952 205 C 140.309 205, 140.053 204.304, 140.382 203.448 C 140.768 202.442, 140.574 202.145, 139.831 202.604 C 139.052 203.086, 138.865 202.623, 139.249 201.156 C 139.559 199.970, 139.356 199, 138.798 199 C 138.215 199, 138.050 197.936, 138.411 196.500 C 138.772 195.058, 138.607 194, 138.019 194 C 136.767 194, 136.620 177.353, 137.866 176.583 C 138.342 176.289, 138.515 174.912, 138.249 173.524 C 137.973 172.079, 138.231 171, 138.852 171 C 139.449 171, 139.678 170.325, 139.362 169.500 C 139.045 168.675, 139.270 168, 139.862 168 C 140.453 168, 140.678 167.325, 140.362 166.500 C 140.045 165.675, 140.311 165, 140.952 165 C 141.593 165, 141.840 164.550, 141.500 164 C 141.160 163.450, 141.385 163, 142 163 C 142.615 163, 142.840 162.550, 142.500 162 C 142.160 161.450, 142.385 161, 143 161 C 143.615 161, 143.841 160.552, 143.503 160.004 C 143.164 159.457, 144.150 157.808, 145.694 156.341 C 147.237 154.873, 147.825 154.018, 147 154.440 C 146.175 154.863, 148.200 152.603, 151.500 149.419 C 154.800 146.235, 158.043 143.728, 158.707 143.849 C 161.266 144.313, 163.856 136.395, 162.393 132.582 C 161.562 130.416, 159.929 130.570, 160.607 132.750 C 161.121 134.405, 161.090 134.404, 160.021 132.742 C 159.400 131.775, 159.213 130.425, 159.606 129.742 C 159.999 129.059, 159.951 128.835, 159.500 129.244 C 159.049 129.653, 158.051 129.090, 157.283 127.994 C 155.567 125.543, 151.485 125.442, 147.750 127.758 M 228.083 128.303 C 228.313 128.469, 229.850 129.396, 231.500 130.362 L 234.500 132.119 232.139 130.059 C 230.841 128.927, 229.303 128, 228.723 128 C 228.142 128, 227.854 128.136, 228.083 128.303 M 217 135.941 C 217 137.559, 217.356 139.102, 217.791 139.371 C 218.226 139.640, 218.402 138.316, 218.182 136.430 C 217.691 132.227, 217 131.941, 217 135.941 M 127.452 153.093 C 126.572 154.794, 126.030 156.363, 126.247 156.580 C 126.464 156.797, 127.390 155.406, 128.305 153.487 C 130.361 149.175, 129.649 148.845, 127.452 153.093 M 198.365 179.500 C 198.368 185, 198.536 187.122, 198.738 184.216 C 198.941 181.311, 198.939 176.811, 198.734 174.216 C 198.528 171.622, 198.363 174, 198.365 179.500 M 120.195 178.500 C 120.215 180.150, 120.439 180.704, 120.693 179.731 C 120.947 178.758, 120.930 177.408, 120.656 176.731 C 120.382 176.054, 120.175 176.850, 120.195 178.500 M 258.355 185.500 C 258.352 190.450, 258.521 192.601, 258.731 190.280 C 258.940 187.959, 258.943 183.909, 258.736 181.280 C 258.530 178.651, 258.358 180.550, 258.355 185.500 M 180 190.723 C 180 191.981, 182.858 194.475, 183.530 193.803 C 183.795 193.538, 183.110 192.504, 182.006 191.506 C 180.903 190.507, 180 190.155, 180 190.723 M 120.195 193.500 C 120.215 195.150, 120.439 195.704, 120.693 194.731 C 120.947 193.758, 120.930 192.408, 120.656 191.731 C 120.382 191.054, 120.175 191.850, 120.195 193.500 M 125.031 211.500 C 125.031 212.050, 125.467 213.175, 126 214 C 126.533 214.825, 126.969 215.050, 126.969 214.500 C 126.969 213.950, 126.533 212.825, 126 212 C 125.467 211.175, 125.031 210.950, 125.031 211.500 M 251.202 215.522 C 250.005 217.985, 249.236 220, 249.493 220 C 250.170 220, 254.211 211.877, 253.758 211.425 C 253.549 211.215, 252.398 213.059, 251.202 215.522 M 128.500 219 C 129.353 220.650, 130.276 222, 130.551 222 C 130.826 222, 130.353 220.650, 129.500 219 C 128.647 217.350, 127.724 216, 127.449 216 C 127.174 216, 127.647 217.350, 128.500 219 M 241.924 229.750 L 239.500 232.500 242.250 230.076 C 243.762 228.742, 245 227.505, 245 227.326 C 245 226.541, 244.190 227.180, 241.924 229.750 M 233.845 237.593 C 228.265 242.207, 226.661 243.925, 230.500 241.174 C 235.011 237.941, 239.586 234.011, 238.845 234.005 C 238.484 234.002, 236.234 235.617, 233.845 237.593 M 145 238.500 C 146.292 239.875, 147.574 241, 147.849 241 C 148.124 241, 147.292 239.875, 146 238.500 C 144.708 237.125, 143.426 236, 143.151 236 C 142.876 236, 143.708 237.125, 145 238.500 M 155 245.493 C 155 246.170, 163.123 250.211, 163.575 249.758 C 163.785 249.549, 161.941 248.398, 159.478 247.202 C 157.015 246.005, 155 245.236, 155 245.493 M 209.500 251.085 C 206.750 252.147, 205.800 252.762, 207.390 252.453 C 210.534 251.842, 217.124 249.166, 215.500 249.159 C 214.950 249.157, 212.250 250.024, 209.500 251.085 M 199.269 253.693 C 200.242 253.947, 201.592 253.930, 202.269 253.656 C 202.946 253.382, 202.150 253.175, 200.500 253.195 C 198.850 253.215, 198.296 253.439, 199.269 253.693" stroke="none" fill="#6bb33c" fill-rule="evenodd"/></svg>