<svg xmlns="http://www.w3.org/2000/svg" width="380" height="380" viewBox="0 0 512 512" version="1.1"><path d="M 339.632 145.401 C 336.405 146.760, 331.804 149.589, 329.408 151.686 C 327.013 153.784, 302.774 178.968, 275.545 207.651 L 226.038 259.803 205.303 238.651 C 193.899 227.018, 182.479 215.894, 179.925 213.931 C 173.271 208.817, 165.612 206.650, 156.135 207.198 C 142.005 208.016, 130.082 215.994, 123.741 228.874 C 120.804 234.840, 120.500 236.314, 120.500 244.580 C 120.500 259.601, 120.958 260.230, 164.279 304.634 C 184.507 325.368, 202.832 343.637, 205.001 345.232 C 216.962 354.029, 234.954 354.260, 247.245 345.776 C 249.855 343.974, 266.920 326.750, 285.167 307.500 C 303.413 288.250, 333.228 257.033, 351.421 238.130 C 369.615 219.226, 385.296 202.576, 386.270 201.130 C 389.735 195.981, 392.298 185.303, 391.739 178.343 C 390.710 165.513, 381.714 152.938, 369.137 146.747 C 363.779 144.109, 361.368 143.550, 354.127 143.267 C 346.728 142.977, 344.665 143.281, 339.632 145.401" stroke="none" fill="#fbfbfb" fill-rule="evenodd"/><path d="M 240.500 3.213 C 197.999 17.642, 143.502 37.482, 92.412 57.128 C 55.717 71.238, 52.939 73.608, 48.605 94.500 C 35.681 156.798, 33.143 254.764, 43.069 308.263 C 47.645 332.929, 58.775 355.252, 79.837 382 C 89.647 394.459, 119.238 423.978, 135 437.028 C 165.857 462.577, 203.479 487.990, 236.439 505.550 C 246.720 511.028, 247.862 511.402, 255.439 511.767 C 263.300 512.146, 263.724 512.045, 272.500 507.715 C 310.564 488.933, 361.848 452.879, 398.500 419.135 C 435.491 385.079, 462.414 345.511, 468.519 316.232 C 474.039 289.755, 476.435 231.978, 473.960 185 C 471.963 147.107, 465.562 90.122, 462.544 83.366 C 460.472 78.731, 455.159 73.077, 449.500 69.488 C 441.309 64.291, 343.827 27.511, 288.145 8.608 C 258.235 -1.547, 255.450 -1.862, 240.500 3.213 M 339.632 145.401 C 336.405 146.760, 331.804 149.589, 329.408 151.686 C 327.013 153.784, 302.774 178.968, 275.545 207.651 L 226.038 259.803 205.303 238.651 C 193.899 227.018, 182.479 215.894, 179.925 213.931 C 173.271 208.817, 165.612 206.650, 156.135 207.198 C 142.005 208.016, 130.082 215.994, 123.741 228.874 C 120.804 234.840, 120.500 236.314, 120.500 244.580 C 120.500 259.601, 120.958 260.230, 164.279 304.634 C 184.507 325.368, 202.832 343.637, 205.001 345.232 C 216.962 354.029, 234.954 354.260, 247.245 345.776 C 249.855 343.974, 266.920 326.750, 285.167 307.500 C 303.413 288.250, 333.228 257.033, 351.421 238.130 C 369.615 219.226, 385.296 202.576, 386.270 201.130 C 389.735 195.981, 392.298 185.303, 391.739 178.343 C 390.710 165.513, 381.714 152.938, 369.137 146.747 C 363.779 144.109, 361.368 143.550, 354.127 143.267 C 346.728 142.977, 344.665 143.281, 339.632 145.401" stroke="none" fill="#56d86b" fill-rule="evenodd"/></svg>