<svg xmlns="http://www.w3.org/2000/svg" width="64" height="64" viewBox="0 0 64 64" version="1.1"><path d="M 46.214 10.742 C 37.616 19.777, 36.843 20.352, 35.781 18.500 C 33.677 14.832, 29.179 11, 26.978 11 C 24.715 11, 20.135 15.270, 17.361 19.966 C 16.173 21.977, 13.993 23.253, 8.990 24.864 C 3.337 26.685, 2.019 27.539, 0.974 30.062 C -0.192 32.879, -0.015 33.458, 3.612 38.692 C 5.750 41.778, 7.776 45.248, 8.112 46.402 C 8.667 48.303, 8.795 48.335, 9.474 46.738 C 10.006 45.486, 9.034 43.403, 6.111 39.531 C -0.185 31.192, 0.647 29.114, 11.710 25.546 C 15.502 24.323, 17.457 23, 18.894 20.683 C 24.526 11.600, 28.334 10.718, 32.949 17.426 L 35.995 21.853 33.408 24.926 C 31.681 26.979, 29.913 28, 28.085 28 C 25.153 28, 21 31.602, 21 34.145 C 21 34.979, 19.888 37.857, 18.530 40.540 C 16.011 45.516, 16.349 46.993, 20 46.953 C 21.258 46.939, 21.235 46.735, 19.855 45.685 C 18.427 44.598, 18.394 44.181, 19.605 42.525 C 20.372 41.476, 21 39.804, 21 38.809 C 21 37.814, 21.675 37, 22.500 37 C 23.494 37, 24 37.994, 24 39.950 C 24 41.705, 24.709 43.314, 25.750 43.920 C 26.721 44.486, 26.944 44.953, 26.250 44.970 C 25.563 44.986, 25 45.456, 25 46.013 C 25 47.420, 31.949 44.397, 34.736 41.778 C 36.006 40.585, 37 38.463, 37 36.946 C 37 34.941, 38.200 33.258, 41.636 30.442 C 46.045 26.830, 46.401 26.715, 48.886 28.105 C 52.912 30.357, 52.706 33.400, 48.125 39.338 C 44.369 44.206, 44.076 45.058, 43.798 51.925 C 43.406 61.610, 42.375 62.334, 33.504 59.152 L 27 56.820 20.496 59.152 C 12.865 61.889, 10.680 61.200, 10.179 55.899 C 9.742 51.278, 8 49.652, 8 53.866 C 8 57.840, 9.373 60.594, 12.076 62.041 C 13.650 62.883, 15.591 62.634, 20.704 60.932 L 27.302 58.737 33.729 61.006 L 40.155 63.274 42.828 61.284 C 45.234 59.492, 45.529 58.570, 45.796 52.026 C 46.063 45.494, 46.444 44.298, 49.572 40.202 C 51.485 37.696, 53.303 34.642, 53.610 33.416 C 54.378 30.358, 52.458 27.153, 49.398 26.385 L 46.853 25.746 50.123 22.373 C 55.709 16.610, 51.885 18.676, 45.775 24.723 L 39.991 30.446 37.346 27.801 L 34.701 25.155 45.100 14.095 C 55.391 3.151, 58.066 1.466, 60.800 4.200 C 62.992 6.392, 62.047 9.376, 57.750 13.832 C 55.366 16.305, 54.428 17.765, 55.613 17.158 C 58.484 15.688, 64 9.283, 64 7.420 C 64 5.334, 59.482 1.002, 57.295 0.992 C 56.308 0.987, 51.321 5.374, 46.214 10.742 M 32.347 27.537 C 31.689 29.253, 34.603 33, 36.596 33 C 39.043 33, 39.200 30.842, 36.930 28.426 C 34.287 25.612, 33.169 25.395, 32.347 27.537 M 25.223 30.557 C 22.714 32.314, 22.274 35.508, 24.428 36.334 C 25.213 36.635, 26.001 38.146, 26.178 39.691 C 26.640 43.719, 30.967 44.128, 33.884 40.420 C 36.666 36.884, 36.554 35.187, 33.313 31.805 C 30.258 28.616, 28.402 28.329, 25.223 30.557 M 22.333 46.667 C 22.700 47.033, 23.300 47.033, 23.667 46.667 C 24.033 46.300, 23.733 46, 23 46 C 22.267 46, 21.967 46.300, 22.333 46.667 M 8.333 49.667 C 8.700 50.033, 9.300 50.033, 9.667 49.667 C 10.033 49.300, 9.733 49, 9 49 C 8.267 49, 7.967 49.300, 8.333 49.667" stroke="none" fill="#150d0a" fill-rule="evenodd"/><path d="M 45.100 14.095 L 34.701 25.155 37.346 27.801 L 39.991 30.446 45.775 24.723 C 48.956 21.575, 51.858 19, 52.224 19 C 52.590 19, 54.929 16.862, 57.422 14.250 C 61.986 9.466, 63.013 6.413, 60.800 4.200 C 58.066 1.466, 55.391 3.151, 45.100 14.095 M 22.973 15.250 C 21.815 16.488, 19.979 18.932, 18.894 20.683 C 17.457 23, 15.502 24.323, 11.710 25.546 C 0.808 29.063, -0.137 31.189, 5.718 39.032 C 9.096 43.557, 9.457 44.659, 9.675 51.102 C 10.031 61.607, 11.653 62.702, 21.213 58.894 L 26.500 56.788 33.282 59.119 C 42.445 62.268, 43.406 61.611, 43.798 51.925 C 44.076 45.058, 44.369 44.206, 48.125 39.338 C 52.706 33.400, 52.912 30.357, 48.886 28.105 C 46.401 26.715, 46.045 26.830, 41.636 30.442 C 38.200 33.258, 37 34.941, 37 36.946 C 37 38.463, 36.006 40.585, 34.736 41.778 C 31.949 44.397, 25 47.420, 25 46.013 C 25 45.456, 25.563 44.986, 26.250 44.970 C 26.944 44.953, 26.721 44.486, 25.750 43.920 C 24.709 43.314, 24 41.705, 24 39.950 C 24 37.994, 23.494 37, 22.500 37 C 21.675 37, 21 37.814, 21 38.809 C 21 39.804, 20.372 41.476, 19.605 42.525 C 18.394 44.181, 18.427 44.598, 19.855 45.685 C 21.235 46.735, 21.258 46.939, 20 46.953 C 16.349 46.993, 16.011 45.516, 18.530 40.540 C 19.888 37.857, 21 34.916, 21 34.005 C 21 31.540, 25.260 28, 28.226 28 C 29.897 28, 31.744 26.905, 33.408 24.926 L 35.995 21.853 32.949 17.426 C 29.445 12.333, 26.337 11.655, 22.973 15.250 M 32.347 27.537 C 31.689 29.253, 34.603 33, 36.596 33 C 39.043 33, 39.200 30.842, 36.930 28.426 C 34.287 25.612, 33.169 25.395, 32.347 27.537 M 25.223 30.557 C 22.714 32.314, 22.274 35.508, 24.428 36.334 C 25.213 36.635, 26.001 38.146, 26.178 39.691 C 26.640 43.719, 30.967 44.128, 33.884 40.420 C 36.666 36.884, 36.554 35.187, 33.313 31.805 C 30.258 28.616, 28.402 28.329, 25.223 30.557 M 22.333 46.667 C 22.700 47.033, 23.300 47.033, 23.667 46.667 C 24.033 46.300, 23.733 46, 23 46 C 22.267 46, 21.967 46.300, 22.333 46.667" stroke="none" fill="#e06144" fill-rule="evenodd"/></svg>