<svg xmlns="http://www.w3.org/2000/svg" width="89" height="100" viewBox="0 0 89 100" version="1.1"><path d="M 43.269 1.693 C 44.242 1.947, 45.592 1.930, 46.269 1.656 C 46.946 1.382, 46.150 1.175, 44.500 1.195 C 42.850 1.215, 42.296 1.439, 43.269 1.693 M 39.333 2.667 C 39.700 3.033, 40.300 3.033, 40.667 2.667 C 41.033 2.300, 40.733 2, 40 2 C 39.267 2, 38.967 2.300, 39.333 2.667 M 48.333 2.667 C 48.700 3.033, 49.300 3.033, 49.667 2.667 C 50.033 2.300, 49.733 2, 49 2 C 48.267 2, 47.967 2.300, 48.333 2.667 M 36.405 4.155 C 35.962 4.870, 36.130 5.038, 36.845 4.595 C 37.998 3.883, 38.393 3, 37.559 3 C 37.316 3, 36.797 3.520, 36.405 4.155 M 51.500 4 C 51.840 4.550, 52.343 5, 52.618 5 C 52.893 5, 52.840 4.550, 52.500 4 C 52.160 3.450, 51.657 3, 51.382 3 C 51.107 3, 51.160 3.450, 51.500 4 M 34 5.500 C 34 5.775, 34.225 6, 34.500 6 C 34.775 6, 35 5.775, 35 5.500 C 35 5.225, 34.775 5, 34.500 5 C 34.225 5, 34 5.225, 34 5.500 M 54 5.500 C 54 5.775, 54.225 6, 54.500 6 C 54.775 6, 55 5.775, 55 5.500 C 55 5.225, 54.775 5, 54.500 5 C 54.225 5, 54 5.225, 54 5.500 M 30.441 7.555 C 28.577 9.049, 28.589 9.067, 30.750 8.020 C 31.988 7.420, 33 6.720, 33 6.465 C 33 5.700, 32.481 5.921, 30.441 7.555 M 56.500 7 C 56.840 7.550, 57.343 8, 57.618 8 C 57.893 8, 57.840 7.550, 57.500 7 C 57.160 6.450, 56.657 6, 56.382 6 C 56.107 6, 56.160 6.450, 56.500 7 M 59 8.500 C 59 8.775, 59.225 9, 59.500 9 C 59.775 9, 60 8.775, 60 8.500 C 60 8.225, 59.775 8, 59.500 8 C 59.225 8, 59 8.225, 59 8.500 M 27 9.500 C 27 9.775, 27.225 10, 27.500 10 C 27.775 10, 28 9.775, 28 9.500 C 28 9.225, 27.775 9, 27.500 9 C 27.225 9, 27 9.225, 27 9.500 M 61 9.500 C 61 9.775, 61.225 10, 61.500 10 C 61.775 10, 62 9.775, 62 9.500 C 62 9.225, 61.775 9, 61.500 9 C 61.225 9, 61 9.225, 61 9.500 M 24.405 11.155 C 23.962 11.870, 24.130 12.038, 24.845 11.595 C 25.998 10.883, 26.393 10, 25.559 10 C 25.316 10, 24.797 10.520, 24.405 11.155 M 63.500 11 C 63.840 11.550, 64.343 12, 64.618 12 C 64.893 12, 64.840 11.550, 64.500 11 C 64.160 10.450, 63.657 10, 63.382 10 C 63.107 10, 63.160 10.450, 63.500 11 M 22 12.500 C 22 12.775, 22.225 13, 22.500 13 C 22.775 13, 23 12.775, 23 12.500 C 23 12.225, 22.775 12, 22.500 12 C 22.225 12, 22 12.225, 22 12.500 M 66 12.500 C 66 12.775, 66.225 13, 66.500 13 C 66.775 13, 67 12.775, 67 12.500 C 67 12.225, 66.775 12, 66.500 12 C 66.225 12, 66 12.225, 66 12.500 M 20 13.500 C 20 13.775, 20.225 14, 20.500 14 C 20.775 14, 21 13.775, 21 13.500 C 21 13.225, 20.775 13, 20.500 13 C 20.225 13, 20 13.225, 20 13.500 M 68 13.500 C 68 13.775, 68.225 14, 68.500 14 C 68.775 14, 69 13.775, 69 13.500 C 69 13.225, 68.775 13, 68.500 13 C 68.225 13, 68 13.225, 68 13.500 M 17.405 15.155 C 16.962 15.870, 17.130 16.038, 17.845 15.595 C 18.998 14.883, 19.393 14, 18.559 14 C 18.316 14, 17.797 14.520, 17.405 15.155 M 70.500 15 C 70.840 15.550, 71.343 16, 71.618 16 C 71.893 16, 71.840 15.550, 71.500 15 C 71.160 14.450, 70.657 14, 70.382 14 C 70.107 14, 70.160 14.450, 70.500 15 M 15 16.500 C 15 16.775, 15.225 17, 15.500 17 C 15.775 17, 16 16.775, 16 16.500 C 16 16.225, 15.775 16, 15.500 16 C 15.225 16, 15 16.225, 15 16.500 M 73 16.500 C 73 16.775, 73.225 17, 73.500 17 C 73.775 17, 74 16.775, 74 16.500 C 74 16.225, 73.775 16, 73.500 16 C 73.225 16, 73 16.225, 73 16.500 M 11.441 18.555 C 9.577 20.049, 9.589 20.067, 11.750 19.020 C 12.988 18.420, 14 17.720, 14 17.465 C 14 16.700, 13.481 16.921, 11.441 18.555 M 75.500 18 C 75.840 18.550, 76.343 19, 76.618 19 C 76.893 19, 76.840 18.550, 76.500 18 C 76.160 17.450, 75.657 17, 75.382 17 C 75.107 17, 75.160 17.450, 75.500 18 M 40.218 19.250 C 39.654 19.938, 39.036 21.603, 38.846 22.951 C 38.363 26.371, 26.499 33.337, 23.704 31.842 C 21.171 30.486, 17.303 31.566, 16.005 33.991 C 14.628 36.563, 15.733 40.787, 18.115 42.062 C 19.704 42.912, 20 44.246, 20 50.567 C 20 56.469, 19.665 58.191, 18.423 58.668 C 17.556 59.001, 16.419 60.397, 15.897 61.771 C 14.159 66.343, 19.595 71.449, 23.730 69.128 C 26.203 67.741, 38.784 74.495, 39.205 77.436 C 39.427 78.993, 40.238 79.504, 42.500 79.516 C 46.191 79.536, 49.997 78.053, 50.009 76.589 C 50.014 75.990, 52.978 73.817, 56.595 71.761 C 61.891 68.750, 63.552 68.225, 65.124 69.066 C 67.698 70.444, 70.686 69.409, 72.610 66.473 C 74.436 63.686, 73.713 60.452, 70.932 58.964 C 69.294 58.087, 69 56.821, 69 50.639 C 69 44.156, 69.277 43.089, 71.500 41 C 73.872 38.771, 75.121 34.189, 72.998 35.501 C 72.447 35.842, 71.558 34.968, 71.023 33.560 C 70.008 30.890, 68.076 30.354, 65.137 31.927 C 62.496 33.340, 50.616 26.223, 50.154 22.951 C 49.642 19.320, 48.134 18, 44.500 18 C 42.710 18, 40.783 18.563, 40.218 19.250 M 78 19.500 C 78 19.775, 78.225 20, 78.500 20 C 78.775 20, 79 19.775, 79 19.500 C 79 19.225, 78.775 19, 78.500 19 C 78.225 19, 78 19.225, 78 19.500 M 8 20.500 C 8 20.775, 8.225 21, 8.500 21 C 8.775 21, 9 20.775, 9 20.500 C 9 20.225, 8.775 20, 8.500 20 C 8.225 20, 8 20.225, 8 20.500 M 80 20.500 C 80 20.775, 80.225 21, 80.500 21 C 80.775 21, 81 20.775, 81 20.500 C 81 20.225, 80.775 20, 80.500 20 C 80.225 20, 80 20.225, 80 20.500 M 4.299 23.250 C 0.247 27.699, -0.007 29.274, 0.208 48.684 L 0.417 67.500 0.958 48 C 1.506 28.291, 1.681 27.295, 5.323 23.250 C 6.437 22.012, 7.124 21, 6.849 21 C 6.574 21, 5.426 22.012, 4.299 23.250 M 84 23.500 C 85.292 24.875, 86.574 26, 86.849 26 C 87.124 26, 86.292 24.875, 85 23.500 C 83.708 22.125, 82.426 21, 82.151 21 C 81.876 21, 82.708 22.125, 84 23.500 M 87.773 43.779 C 88.175 68.456, 88.636 71.142, 88.755 49.500 C 88.812 39.050, 88.554 29.725, 88.180 28.779 C 87.806 27.832, 87.623 34.582, 87.773 43.779 M 33.250 31.626 C 28.363 34.407, 27 35.695, 27 37.534 C 27 38.828, 26.079 40.532, 24.954 41.320 C 23.160 42.576, 22.944 43.641, 23.204 49.940 L 23.500 57.128 31.417 43.314 C 40.533 27.409, 40.214 27.989, 39.809 28.035 C 39.639 28.054, 36.688 29.670, 33.250 31.626 M 49.187 28.610 C 49.451 29.100, 53.228 35.716, 57.583 43.314 L 65.500 57.128 65.796 49.958 C 66.027 44.359, 65.749 42.537, 64.526 41.643 C 63.665 41.013, 62.624 39.240, 62.213 37.703 C 61.661 35.641, 59.795 33.968, 55.087 31.315 C 51.579 29.338, 48.924 28.121, 49.187 28.610 M 41.230 32.199 C 30.210 50.414, 25.281 59.881, 26.291 60.891 C 27.815 62.415, 61.183 62.417, 62.706 60.894 C 64.051 59.549, 47.107 29.676, 44.729 29.199 C 43.896 29.031, 42.337 30.368, 41.230 32.199 M 27.083 65.398 C 27.313 65.616, 30.279 67.418, 33.675 69.401 C 38.557 72.253, 40.336 72.824, 42.175 72.131 C 43.513 71.627, 45.509 71.632, 46.877 72.143 C 48.765 72.847, 50.567 72.296, 55.627 69.466 C 59.132 67.506, 62 65.699, 62 65.451 C 62 65.203, 54.050 65, 44.333 65 C 34.617 65, 26.854 65.179, 27.083 65.398 M 1.063 71.234 C 1.029 72.188, 2.237 74.235, 3.750 75.782 C 5.263 77.330, 5.740 77.674, 4.810 76.548 C 3.881 75.421, 2.672 73.374, 2.123 71.999 C 1.437 70.279, 1.107 70.040, 1.063 71.234 M 87 71.365 C 87 72.116, 86.056 74.028, 84.902 75.615 L 82.805 78.500 85.402 75.694 C 87.700 73.212, 88.883 70, 87.500 70 C 87.225 70, 87 70.614, 87 71.365 M 8 79.500 C 8 79.775, 8.225 80, 8.500 80 C 8.775 80, 9 79.775, 9 79.500 C 9 79.225, 8.775 79, 8.500 79 C 8.225 79, 8 79.225, 8 79.500 M 80 79.500 C 80 79.775, 80.225 80, 80.500 80 C 80.775 80, 81 79.775, 81 79.500 C 81 79.225, 80.775 79, 80.500 79 C 80.225 79, 80 79.225, 80 79.500 M 10 80.430 C 10 80.705, 10.900 81.411, 12 82 C 13.100 82.589, 14 82.845, 14 82.570 C 14 82.295, 13.100 81.589, 12 81 C 10.900 80.411, 10 80.155, 10 80.430 M 78 80.500 C 78 80.775, 78.225 81, 78.500 81 C 78.775 81, 79 80.775, 79 80.500 C 79 80.225, 78.775 80, 78.500 80 C 78.225 80, 78 80.225, 78 80.500 M 76 81.500 C 76 81.775, 76.225 82, 76.500 82 C 76.775 82, 77 81.775, 77 81.500 C 77 81.225, 76.775 81, 76.500 81 C 76.225 81, 76 81.225, 76 81.500 M 15 83.449 C 15 83.724, 16.350 84.647, 18 85.500 C 19.650 86.353, 21 86.826, 21 86.551 C 21 86.276, 19.650 85.353, 18 84.500 C 16.350 83.647, 15 83.174, 15 83.449 M 73 83.500 C 73 83.775, 73.225 84, 73.500 84 C 73.775 84, 74 83.775, 74 83.500 C 74 83.225, 73.775 83, 73.500 83 C 73.225 83, 73 83.225, 73 83.500 M 71 84.500 C 71 84.775, 71.225 85, 71.500 85 C 71.775 85, 72 84.775, 72 84.500 C 72 84.225, 71.775 84, 71.500 84 C 71.225 84, 71 84.225, 71 84.500 M 68.405 86.155 C 67.962 86.870, 68.130 87.038, 68.845 86.595 C 69.480 86.203, 70 85.684, 70 85.441 C 70 84.607, 69.117 85.002, 68.405 86.155 M 22 87.500 C 22 87.775, 22.225 88, 22.500 88 C 22.775 88, 23 87.775, 23 87.500 C 23 87.225, 22.775 87, 22.500 87 C 22.225 87, 22 87.225, 22 87.500 M 66 87.500 C 66 87.775, 66.225 88, 66.500 88 C 66.775 88, 67 87.775, 67 87.500 C 67 87.225, 66.775 87, 66.500 87 C 66.225 87, 66 87.225, 66 87.500 M 24.500 89 C 24.840 89.550, 25.343 90, 25.618 90 C 25.893 90, 25.840 89.550, 25.500 89 C 25.160 88.450, 24.657 88, 24.382 88 C 24.107 88, 24.160 88.450, 24.500 89 M 63.405 89.155 C 62.962 89.870, 63.130 90.038, 63.845 89.595 C 64.480 89.203, 65 88.684, 65 88.441 C 65 87.607, 64.117 88.002, 63.405 89.155 M 27 90.500 C 27 90.775, 27.225 91, 27.500 91 C 27.775 91, 28 90.775, 28 90.500 C 28 90.225, 27.775 90, 27.500 90 C 27.225 90, 27 90.225, 27 90.500 M 61 90.500 C 61 90.775, 61.225 91, 61.500 91 C 61.775 91, 62 90.775, 62 90.500 C 62 90.225, 61.775 90, 61.500 90 C 61.225 90, 61 90.225, 61 90.500 M 29.500 92 C 29.840 92.550, 30.343 93, 30.618 93 C 30.893 93, 30.840 92.550, 30.500 92 C 30.160 91.450, 29.657 91, 29.382 91 C 29.107 91, 29.160 91.450, 29.500 92 M 59 91.500 C 59 91.775, 59.225 92, 59.500 92 C 59.775 92, 60 91.775, 60 91.500 C 60 91.225, 59.775 91, 59.500 91 C 59.225 91, 59 91.225, 59 91.500 M 57 92.500 C 57 92.775, 57.225 93, 57.500 93 C 57.775 93, 58 92.775, 58 92.500 C 58 92.225, 57.775 92, 57.500 92 C 57.225 92, 57 92.225, 57 92.500 M 34 94.500 C 34 94.775, 34.225 95, 34.500 95 C 34.775 95, 35 94.775, 35 94.500 C 35 94.225, 34.775 94, 34.500 94 C 34.225 94, 34 94.225, 34 94.500 M 54 94.500 C 54 94.775, 54.225 95, 54.500 95 C 54.775 95, 55 94.775, 55 94.500 C 55 94.225, 54.775 94, 54.500 94 C 54.225 94, 54 94.225, 54 94.500 M 37.441 96.445 C 38.509 97.300, 39.821 98, 40.358 98 C 41.628 98, 41.061 97.538, 38 96.080 C 35.643 94.958, 35.611 94.978, 37.441 96.445 M 51 96 C 50.099 96.582, 49.975 96.975, 50.691 96.985 C 51.346 96.993, 52.160 96.550, 52.500 96 C 53.267 94.758, 52.921 94.758, 51 96 M 48 97.500 C 48 97.775, 48.225 98, 48.500 98 C 48.775 98, 49 97.775, 49 97.500 C 49 97.225, 48.775 97, 48.500 97 C 48.225 97, 48 97.225, 48 97.500 M 43.269 98.693 C 44.242 98.947, 45.592 98.930, 46.269 98.656 C 46.946 98.382, 46.150 98.175, 44.500 98.195 C 42.850 98.215, 42.296 98.439, 43.269 98.693" stroke="none" fill="#fae6f5" fill-rule="evenodd"/><path d="M 40.731 2.374 C 41.068 2.919, 40.640 3.076, 39.747 2.733 C 38.820 2.377, 37.927 2.747, 37.590 3.627 C 37.273 4.452, 36.561 4.847, 36.007 4.504 C 35.453 4.162, 35 4.434, 35 5.108 C 35 5.782, 34.737 6.071, 34.417 5.750 C 34.096 5.429, 32.954 6.046, 31.880 7.120 C 30.806 8.194, 29.493 8.805, 28.964 8.477 C 28.434 8.150, 28 8.385, 28 9 C 28 9.615, 27.597 9.869, 27.105 9.565 C 26.612 9.260, 25.941 9.712, 25.612 10.569 C 25.283 11.426, 24.561 11.847, 24.007 11.504 C 23.453 11.162, 23 11.385, 23 12 C 23 12.615, 22.550 12.840, 22 12.500 C 21.450 12.160, 21 12.385, 21 13 C 21 13.615, 20.597 13.869, 20.105 13.565 C 19.612 13.260, 18.941 13.712, 18.612 14.569 C 18.283 15.426, 17.561 15.847, 17.007 15.504 C 16.453 15.162, 16 15.434, 16 16.108 C 16 16.782, 15.737 17.071, 15.417 16.750 C 15.096 16.429, 13.954 17.046, 12.880 18.120 C 11.806 19.194, 10.493 19.805, 9.964 19.477 C 9.434 19.150, 9 19.434, 9 20.108 C 9 20.782, 8.729 21.062, 8.397 20.730 C 8.066 20.399, 6.659 21.336, 5.272 22.814 C 3.885 24.291, 3.369 24.600, 4.125 23.500 C 5.376 21.681, 5.347 21.619, 3.809 22.823 C 2.842 23.580, 2.380 24.827, 2.729 25.737 C 3.131 26.785, 2.944 27.084, 2.181 26.612 C 1.401 26.130, 1.238 26.456, 1.681 27.612 C 2.046 28.561, 1.929 29.075, 1.420 28.761 C 0.871 28.423, 0.500 36.631, 0.500 49.098 C 0.500 60.595, 0.890 70.001, 1.367 70.001 C 1.843 70, 1.998 70.901, 1.710 72.001 C 1.422 73.102, 1.595 73.751, 2.093 73.442 C 2.592 73.134, 3.056 73.359, 3.125 73.941 C 3.194 74.523, 3.327 75.563, 3.420 76.250 C 3.514 76.938, 4.145 77.383, 4.823 77.241 C 5.501 77.098, 6.315 77.658, 6.633 78.485 C 6.950 79.312, 7.612 79.740, 8.105 79.435 C 8.597 79.131, 9 79.385, 9 80 C 9 80.615, 9.434 80.850, 9.964 80.523 C 10.493 80.195, 11.843 80.843, 12.964 81.964 C 14.084 83.084, 15.225 84, 15.500 84 C 15.775 84, 16.477 84, 17.059 84 C 17.641 84, 17.797 84.520, 17.405 85.155 C 16.933 85.918, 17.134 86.035, 17.997 85.502 C 18.820 84.993, 19.803 85.377, 20.652 86.538 C 21.393 87.553, 22 87.985, 22 87.500 C 22 87.015, 22.708 87.491, 23.574 88.559 C 24.440 89.626, 24.857 89.825, 24.500 89 C 24.067 87.999, 24.325 88.077, 25.275 89.234 C 26.057 90.188, 26.991 90.676, 27.349 90.318 C 27.707 89.960, 28 90.218, 28 90.892 C 28 91.566, 28.422 91.857, 28.939 91.538 C 29.455 91.219, 30.242 91.606, 30.689 92.398 C 31.135 93.190, 32.173 93.987, 32.996 94.169 C 33.819 94.351, 35.090 95.175, 35.821 96 C 36.551 96.825, 36.861 96.934, 36.510 96.242 C 36.007 95.250, 36.406 95.228, 38.405 96.139 C 39.798 96.773, 40.762 97.575, 40.549 97.921 C 40.335 98.267, 42.262 98.468, 44.830 98.368 C 51.182 98.122, 51.192 98.119, 50.565 97.105 C 50.260 96.612, 50.707 95.943, 51.558 95.616 C 52.574 95.226, 52.889 95.447, 52.478 96.261 C 52.133 96.943, 52.448 96.780, 53.176 95.901 C 54.507 94.293, 55.106 94, 57.059 94 C 57.641 94, 57.797 93.480, 57.405 92.845 C 56.933 92.082, 57.134 91.965, 57.997 92.498 C 58.820 93.007, 59.803 92.623, 60.652 91.462 C 61.393 90.447, 62 90.015, 62 90.500 C 62 90.985, 62.708 90.509, 63.574 89.441 C 64.440 88.374, 64.863 88.063, 64.515 88.750 C 63.450 90.854, 64.956 90.147, 67.711 87.250 C 69.150 85.738, 69.961 85.129, 69.513 85.899 C 69.017 86.750, 70.308 86.393, 72.808 84.988 C 75.069 83.717, 76.689 82.305, 76.407 81.850 C 76.126 81.395, 76.507 81.257, 77.253 81.544 C 79.453 82.388, 87.066 76.335, 86.304 74.349 C 85.896 73.286, 86.054 72.915, 86.737 73.337 C 87.434 73.768, 87.614 73.241, 87.249 71.845 C 86.891 70.475, 87.069 69.925, 87.738 70.338 C 88.317 70.696, 89.063 70.279, 89.395 69.412 C 90.347 66.932, 90.083 65.324, 89 67 C 87.622 69.132, 87.676 31.539, 89.055 28.684 C 90.097 26.528, 90.089 26.525, 88.430 28.500 L 86.750 30.500 87.139 28.500 C 87.527 26.503, 81.671 19.663, 80.540 20.793 C 80.243 21.090, 80 20.733, 80 20 C 80 19.267, 79.707 18.960, 79.349 19.318 C 78.991 19.676, 78.057 19.188, 77.275 18.234 C 76.325 17.077, 76.067 16.999, 76.500 18 C 76.933 19.001, 76.675 18.923, 75.725 17.766 C 74.943 16.812, 74.009 16.324, 73.651 16.682 C 73.293 17.040, 73 16.782, 73 16.108 C 73 15.434, 72.547 15.162, 71.993 15.504 C 71.439 15.847, 70.717 15.426, 70.388 14.569 C 70.059 13.712, 69.388 13.260, 68.895 13.565 C 68.403 13.869, 68 13.566, 68 12.892 C 68 12.218, 67.707 11.960, 67.349 12.318 C 66.991 12.676, 66.057 12.188, 65.275 11.234 C 64.325 10.077, 64.067 9.999, 64.500 11 C 64.933 12.001, 64.675 11.923, 63.725 10.766 C 62.943 9.812, 62.009 9.324, 61.651 9.682 C 61.293 10.040, 61 9.733, 61 9 C 61 8.267, 60.707 7.960, 60.349 8.318 C 59.991 8.676, 59.057 8.188, 58.275 7.234 C 57.325 6.077, 57.067 5.999, 57.500 7 C 57.933 8.001, 57.675 7.923, 56.725 6.766 C 55.943 5.812, 55.009 5.324, 54.651 5.682 C 54.293 6.040, 54 5.782, 54 5.108 C 54 4.434, 53.547 4.162, 52.993 4.504 C 52.439 4.847, 51.727 4.452, 51.410 3.627 C 51.094 2.801, 50.197 2.371, 49.417 2.670 C 48.638 2.969, 47.999 2.828, 47.997 2.357 C 47.995 1.886, 46.225 1.479, 44.064 1.454 C 41.779 1.427, 40.384 1.812, 40.731 2.374 M 31 6.500 C 31 6.775, 31.225 7, 31.500 7 C 31.775 7, 32 6.775, 32 6.500 C 32 6.225, 31.775 6, 31.500 6 C 31.225 6, 31 6.225, 31 6.500 M 12 17.500 C 12 17.775, 12.225 18, 12.500 18 C 12.775 18, 13 17.775, 13 17.500 C 13 17.225, 12.775 17, 12.500 17 C 12.225 17, 12 17.225, 12 17.500 M 40.218 19.250 C 39.654 19.938, 39.036 21.603, 38.846 22.951 C 38.363 26.371, 26.499 33.337, 23.704 31.842 C 21.171 30.486, 17.303 31.566, 16.005 33.991 C 14.628 36.563, 15.733 40.787, 18.115 42.062 C 19.704 42.912, 20 44.246, 20 50.567 C 20 56.469, 19.665 58.191, 18.423 58.668 C 17.556 59.001, 16.419 60.397, 15.897 61.771 C 14.159 66.343, 19.595 71.449, 23.730 69.128 C 26.192 67.746, 38.773 74.490, 39.229 77.436 C 39.404 78.571, 40.083 79.393, 40.738 79.262 C 41.392 79.131, 41.687 79.653, 41.392 80.422 C 40.771 82.039, 43.932 83.347, 46.282 82.445 C 48.524 81.585, 49.361 78.971, 47.199 79.582 C 46.265 79.846, 46.513 79.529, 47.750 78.878 C 48.987 78.227, 50.004 77.201, 50.009 76.597 C 50.014 75.994, 52.978 73.817, 56.595 71.761 C 61.891 68.750, 63.552 68.225, 65.124 69.066 C 67.698 70.444, 70.686 69.409, 72.610 66.473 C 74.436 63.686, 73.713 60.452, 70.932 58.964 C 69.294 58.087, 69 56.821, 69 50.639 C 69 44.156, 69.277 43.089, 71.500 41 C 73.872 38.771, 75.121 34.189, 72.998 35.501 C 72.447 35.842, 71.558 34.968, 71.023 33.560 C 70.008 30.890, 68.076 30.354, 65.137 31.927 C 62.496 33.340, 50.616 26.223, 50.154 22.951 C 49.642 19.320, 48.134 18, 44.500 18 C 42.710 18, 40.783 18.563, 40.218 19.250 M 84.500 23 C 85.495 24.100, 86.535 25, 86.810 25 C 87.085 25, 86.495 24.100, 85.500 23 C 84.505 21.900, 83.465 21, 83.190 21 C 82.915 21, 83.505 21.900, 84.500 23 M 0 28.500 C 0 28.775, 0.225 29, 0.500 29 C 0.775 29, 1 28.775, 1 28.500 C 1 28.225, 0.775 28, 0.500 28 C 0.225 28, 0 28.225, 0 28.500 M 33.250 31.626 C 28.363 34.407, 27 35.695, 27 37.534 C 27 38.828, 26.079 40.532, 24.954 41.320 C 23.160 42.576, 22.944 43.641, 23.204 49.940 L 23.500 57.128 31.417 43.314 C 40.533 27.409, 40.214 27.989, 39.809 28.035 C 39.639 28.054, 36.688 29.670, 33.250 31.626 M 49.187 28.610 C 49.451 29.100, 53.228 35.716, 57.583 43.314 L 65.500 57.128 65.796 49.958 C 66.027 44.359, 65.749 42.537, 64.526 41.643 C 63.665 41.013, 62.624 39.240, 62.213 37.703 C 61.661 35.641, 59.795 33.968, 55.087 31.315 C 51.579 29.338, 48.924 28.121, 49.187 28.610 M 41.230 32.199 C 30.210 50.414, 25.281 59.881, 26.291 60.891 C 27.815 62.415, 61.183 62.417, 62.706 60.894 C 64.051 59.549, 47.107 29.676, 44.729 29.199 C 43.896 29.031, 42.337 30.368, 41.230 32.199 M 27.083 65.398 C 27.313 65.616, 30.279 67.418, 33.675 69.401 C 38.557 72.253, 40.336 72.824, 42.175 72.131 C 43.513 71.627, 45.509 71.632, 46.877 72.143 C 48.765 72.847, 50.567 72.296, 55.627 69.466 C 59.132 67.506, 62 65.699, 62 65.451 C 62 65.203, 54.050 65, 44.333 65 C 34.617 65, 26.854 65.179, 27.083 65.398 M 0.079 68.583 C 0.127 69.748, 0.364 69.985, 0.683 69.188 C 0.972 68.466, 0.936 67.603, 0.604 67.271 C 0.272 66.939, 0.036 67.529, 0.079 68.583 M 83.872 76.750 C 82.629 78.336, 82.664 78.371, 84.250 77.128 C 85.916 75.821, 86.445 75, 85.622 75 C 85.415 75, 84.627 75.787, 83.872 76.750 M 4 76.500 C 4 76.775, 4.225 77, 4.500 77 C 4.775 77, 5 76.775, 5 76.500 C 5 76.225, 4.775 76, 4.500 76 C 4.225 76, 4 76.225, 4 76.500 M 43.333 79.667 C 43.700 80.033, 44.300 80.033, 44.667 79.667 C 45.033 79.300, 44.733 79, 44 79 C 43.267 79, 42.967 79.300, 43.333 79.667 M 80 79.500 C 80 79.775, 80.225 80, 80.500 80 C 80.775 80, 81 79.775, 81 79.500 C 81 79.225, 80.775 79, 80.500 79 C 80.225 79, 80 79.225, 80 79.500 M 78 80.500 C 78 80.775, 78.225 81, 78.500 81 C 78.775 81, 79 80.775, 79 80.500 C 79 80.225, 78.775 80, 78.500 80 C 78.225 80, 78 80.225, 78 80.500 M 12 82.500 C 12 82.775, 12.225 83, 12.500 83 C 12.775 83, 13 82.775, 13 82.500 C 13 82.225, 12.775 82, 12.500 82 C 12.225 82, 12 82.225, 12 82.500 M 73 83.500 C 73 83.775, 73.225 84, 73.500 84 C 73.775 84, 74 83.775, 74 83.500 C 74 83.225, 73.775 83, 73.500 83 C 73.225 83, 73 83.225, 73 83.500 M 71 84.500 C 71 84.775, 71.225 85, 71.500 85 C 71.775 85, 72 84.775, 72 84.500 C 72 84.225, 71.775 84, 71.500 84 C 71.225 84, 71 84.225, 71 84.500 M 19 86.500 C 19 86.775, 19.225 87, 19.500 87 C 19.775 87, 20 86.775, 20 86.500 C 20 86.225, 19.775 86, 19.500 86 C 19.225 86, 19 86.225, 19 86.500 M 66 87.500 C 66 87.775, 66.225 88, 66.500 88 C 66.775 88, 67 87.775, 67 87.500 C 67 87.225, 66.775 87, 66.500 87 C 66.225 87, 66 87.225, 66 87.500 M 59 91.500 C 59 91.775, 59.225 92, 59.500 92 C 59.775 92, 60 91.775, 60 91.500 C 60 91.225, 59.775 91, 59.500 91 C 59.225 91, 59 91.225, 59 91.500 M 38 97.500 C 38 97.775, 38.225 98, 38.500 98 C 38.775 98, 39 97.775, 39 97.500 C 39 97.225, 38.775 97, 38.500 97 C 38.225 97, 38 97.225, 38 97.500 M 48 97.500 C 48 97.775, 48.225 98, 48.500 98 C 48.775 98, 49 97.775, 49 97.500 C 49 97.225, 48.775 97, 48.500 97 C 48.225 97, 48 97.225, 48 97.500" stroke="none" fill="#e435ac" fill-rule="evenodd"/></svg>